<?xml version="1.0" encoding="utf-8"?>
<!-- Generator: Adobe Illustrator 23.0.2, SVG Export Plug-In . SVG Version: 6.00 Build 0)  -->
<svg version="1.1" xmlns="http://www.w3.org/2000/svg" xmlns:xlink="http://www.w3.org/1999/xlink" x="0px" y="0px"
	 viewBox="0 0 500 361.77" style="enable-background:new 0 0 500 361.77;" xml:space="preserve">
<style type="text/css">
	.st0{display:none;}
	.st1{display:inline;fill:#FFFFFF;}
	.st2{display:none;fill:#B9EFEF;}
	.st3{fill:#FCBC70;}
	.st4{fill:#FF9F48;}
	.st5{fill:#38364C;}
	.st6{fill:#222233;}
	.st7{fill:#4955C1;}
	.st8{fill:#FFC23B;}
	.st9{fill:#3444A5;}
	.st10{fill:#E59810;}
	.st11{fill:#525172;}
	.st12{fill:#FFFFFF;}
	.st13{fill:#F4AD21;}
	.st14{fill:#D34F84;}
	.st15{fill:#B72969;}
</style>
<g id="BACKGROUND" class="st0">
	<rect y="-65.88" class="st1" width="500" height="500"/>
</g>
<g id="OBJECTS">
	<path class="st2" d="M461.1,210.6c0,59.19-24.26,112.71-63.38,151.17H100.57c-39.12-38.46-63.38-91.98-63.38-151.17
		c0-117.06,94.89-211.95,211.95-211.95S461.1,93.54,461.1,210.6z"/>
	<g>
		<g>
			<path class="st3" d="M349.63,116.53c-0.11-0.46-0.22-0.9-0.33-1.35c-0.83,0.18-1.7,0.21-2.56,0.22
				c-1.71,0.03-3.44,0.05-5.09-0.36c-3.86-0.98-6.7-4.18-9.04-7.4c-7.39-10.2-12.18-22.02-16.7-33.79l0,0
				c-1.17-2.11,0.69-1.66,2.01-2.97c1.84-1.82,3.56-3.98,6.02-4.8c2.14-0.74,4.54-0.34,6.69-1.07c2.12-0.73,3.72-2.49,5.03-4.31
				c0.78-1.07,1.53-2.22,2.66-2.89c2.37-1.41,5.56-0.12,7.35,1.98c1.8,2.09,2.64,4.8,3.87,7.28c2.02,4.1,5.16,7.63,9,10.11
				c0.66-2.66,0.67-5.5,1.84-7.97c1.16-2.48,4.13-4.47,6.6-3.3c2.06,0.99,2.71,3.61,2.75,5.9c0.04,2.05-0.22,4.11-0.76,6.08
				c-0.17,0.66-0.39,1.33-0.29,2.01c0.09,0.61,0.4,1.14,0.72,1.66c0.64,1.04,1.28,2.09,1.91,3.13c2.19,3.59,4.37,7.17,6.56,10.75
				c-5.88,6.34-11.74,12.67-17.61,19l0.23,0.21c1.18,1.92,2.24,3.88,3.18,5.9c-2.27,4.3-4.52,8.6-6.79,12.91
				c-0.66,1.26-1.32,2.51-2.16,3.66C353,130.27,351.32,123.39,349.63,116.53z"/>
			<path class="st4" d="M361.89,90.23c-0.3,3.12-0.76,6.23-1.46,9.29c-0.56,2.46-1.3,4.9-2.49,7.14c-1.16,2.18-2.78,4.13-4.92,5.41
				c-2.42,1.44-5.25,1.96-8.03,2.08c-1.45,0.06-2.97,0.11-4.4-0.18c-1.4-0.28-2.56-1.02-3.58-2c-1.99-1.9-3.66-4.23-5.2-6.5
				c-3.07-4.54-5.54-9.45-7.8-14.43c-2.6-5.72-4.94-11.56-7.65-17.24c-0.3-0.63-1.24-0.09-0.94,0.54
				c5.02,10.52,8.79,21.74,15.32,31.48c1.57,2.33,3.26,4.69,5.26,6.68c0.98,0.97,2.09,1.81,3.4,2.27c1.38,0.48,2.89,0.49,4.33,0.49
				c2.86-0.01,5.77-0.37,8.42-1.53c2.39-1.05,4.35-2.82,5.8-4.98c1.63-2.42,2.62-5.24,3.32-8.06c0.85-3.43,1.36-6.96,1.7-10.47
				C363.05,89.53,361.96,89.54,361.89,90.23z"/>
		</g>
		<g>
			<path class="st5" d="M425.54,361.77h-78.2c-2.19-19.47-3.45-42.41-3.76-64.61c-0.2-13.66-0.04-27.05,0.48-39.18
				c0.44,0.11,0.9,0.15,1.35,0.18c20.83,1.82,41.85,1.53,62.62-0.91c2.69,4.41,5.52,8.74,8.48,12.98c0.54,0.76,1.14,1.57,2.03,1.85
				c1.07,0.35,2.22-0.17,3.23-0.68c0.89-0.46,1.78-0.91,2.67-1.38C424.81,297.58,425.17,334.36,425.54,361.77z"/>
			<path class="st6" d="M376.32,361.77h-17.9v-2.6c0,0,0-0.04,0.01-0.13c0-0.01,0-0.01,0-0.02c0-0.03,0.01-0.07,0.01-0.11
				c0-0.02,0.01-0.05,0.01-0.08c0-0.05,0.01-0.12,0.02-0.2c0-0.04,0-0.1,0.01-0.17v-0.01c0-0.02,0.01-0.03,0.01-0.05
				c0-0.05,0.01-0.11,0.01-0.16c0,0,0,0,0-0.01c0-0.02,0-0.03,0.01-0.05c0.01-0.11,0.02-0.24,0.03-0.39c0-0.02,0-0.04,0.01-0.07
				c0.02-0.27,0.05-0.6,0.09-0.95c0.22-2.36,0.61-6.48,1.16-12.35c0.4-4.16,0.79-8.35,0.46-12.52c-0.37-4.63-1.63-9.18-1.54-13.82
				c0.07-3.67,0.96-7.28,1.97-10.82c0.75-2.63,1.53-5.58,0.21-7.97c-0.38-0.68-0.91-1.27-1.25-1.97c-1.21-2.6,0.63-5.54,2.38-7.82
				c0.51-0.66,1.09-1.37,1.92-1.52c1.29-0.23,2.34,1.01,2.97,2.17c1.75,3.19,2.63,6.76,3.34,10.33c1.38,6.95,2.11,14.01,2.85,21.05
				C374.19,331.7,375.26,351.57,376.32,361.77z"/>
		</g>
		<g>
			<path class="st7" d="M320.9,311.56h-0.01c-0.31-0.16-0.61-0.37-0.8-0.66c-0.39-0.59-0.26-1.36-0.13-2.05
				c3.35-16.85,6.32-33.77,8.92-50.74c1.26-8.21,2.43-16.43,2.81-24.73c0.4-8.54-0.05-17.09,0.18-25.64
				c0.76-26.47,8.17-52.67,6.23-79.07c1.96-0.5,3.92-0.98,5.89-1.46c2.07,4.1,1.14,9.52,0.14,14.22
				c-6.88,32.37-8.68,65.8-5.32,98.72c0.52,5.07,1.16,10.16,2.68,15.02c0.25,0.79,0.54,1.62,1.17,2.16c0.4,0.35,0.88,0.54,1.4,0.65
				c-0.52,12.13-0.67,25.52-0.48,39.18l-0.66,0.01c-1.41,5.95-3.51,11.73-6.27,17.18c-0.42,0.82-0.93,1.71-1.81,1.98
				c-0.62,0.18-1.26,0.02-1.88-0.18c-0.12-0.05-0.24-0.1-0.36-0.14c-3.7-1.4-7.4-2.81-11.11-4.21
				C321.3,311.74,321.1,311.65,320.9,311.56z"/>
			<path class="st7" d="M408.03,257.27c-17.14-28.05-28.83-59.44-34.17-91.89c-2.48-15.16-3.78-31.08-10.23-44.83
				c-0.93-2.02-1.99-3.98-3.18-5.9l-0.23-0.21c5.88-6.33,11.74-12.66,17.61-19c1.91-2.06,3.8-4.11,5.71-6.17
				c0.25-0.27,0.53-0.56,0.9-0.59c0.27-0.02,0.52,0.11,0.75,0.25c1.97,1.29,2.38,3.93,3.12,6.17c0.75,2.23,2.76,4.64,5.01,3.92
				c1.43-0.46,2.33-2.07,3.8-2.35c1.51-0.28,2.83,0.91,4.13,1.72c3.04,1.9,7.19,1.79,10.12-0.24c1.51-1.05,2.82-2.6,4.64-2.85
				c2.67-0.37,4.9,2.22,7.58,2.45c-1.64-2.01-2.84-4.36-3.5-6.86c-0.59-2.21-0.75-4.52-1.37-6.72c-2.64-9.5-12.8-15.07-16.72-24.12
				c1.07-0.86,2.16-1.72,3.23-2.58c4.73-3.77,9.45-7.54,14.18-11.31c0.69-0.55,1.38-1.11,2.07-1.66c0.35-0.28,0.75-0.57,1.2-0.55
				c0.51,0.02,0.91,0.44,1.24,0.85c2.5,3.07,4.34,6.62,6.23,10.1c4.64,8.53,9.81,16.78,15.47,24.67
				c7.64,10.67,16.53,21.63,17.48,34.68l-0.08,0.01c0.21,3.64-1.03,7.38-3.44,10.14c-3.44,3.92-8.85,5.73-12.09,9.82
				c-1.77,2.22-2.8,5.03-4.86,6.99c-1.37,1.31-3.14,2.18-4.33,3.66c-2.45,3.1-1.72,8.06-4.6,10.79c-1.46,1.4-3.77,2.08-4.46,3.99
				c-0.35,0.96-0.17,2.03,0,3.04c5.17,28.99,15.34,57.07,29.91,82.65c0.75,1.32,1.51,2.99,0.67,4.26c-0.33,0.48-0.82,0.79-1.32,1.09
				c-11.12,6.88-22.5,13.34-34.12,19.34c-0.89,0.47-1.78,0.92-2.67,1.38c-1.01,0.51-2.16,1.03-3.23,0.68
				c-0.89-0.28-1.49-1.09-2.03-1.85C413.55,266,410.72,261.68,408.03,257.27z"/>
			<path class="st8" d="M343.99,127.22c-0.37-0.74-0.83-1.42-1.41-2.06c-0.6-0.65-1.34-1.38-1.18-2.24c0.12-0.62,0.67-1.04,1.18-1.4
				c2.35-1.67,4.7-3.32,7.05-4.99c1.69,6.86,3.37,13.73,5.06,20.59c0.83-1.15,1.5-2.41,2.16-3.66c2.27-4.31,4.52-8.61,6.79-12.91
				c6.45,13.76,7.75,29.67,10.23,44.83c5.33,32.45,17.03,63.84,34.17,91.89c-20.77,2.44-41.79,2.73-62.62,0.91
				c-0.46-0.03-0.91-0.08-1.35-0.18c-0.52-0.11-1-0.3-1.4-0.65c-0.63-0.54-0.92-1.37-1.17-2.16c-1.52-4.87-2.16-9.95-2.68-15.02
				c-3.36-32.92-1.56-66.35,5.32-98.72C345.13,136.74,346.06,131.32,343.99,127.22z"/>
			<path class="st9" d="M436.53,140.56c-2.75-2.3-5.62-4.47-8.59-6.49c-0.31-0.21-0.69,0.03-0.8,0.33
				c-1.39,4.02,1.11,7.95,0.89,11.98c-4.32-3.44-7.07-8.42-9.35-13.37c-2.89-6.27-5.57-12.65-8.34-18.98
				c-0.79-1.81-1.58-3.61-2.37-5.42c-0.49-1.13-1.08-3.59-2.76-3.24c-0.25,0.05-0.38,0.29-0.4,0.53
				c-1.05,14.16,3.15,28.6,11.68,39.96c2.56,3.41,5.42,6.6,7.45,10.37c0.33,0.61,1.27,0.08,0.94-0.54
				c-1.75-3.23-4.11-6.06-6.36-8.95c-2.22-2.84-4.22-5.81-5.91-8.99c-3.3-6.2-5.47-13-6.39-19.96c-0.49-3.71-0.6-7.45-0.37-11.18
				c0.39,0.45,0.74,1.55,0.84,1.79l1.08,2.46c0.68,1.56,1.37,3.12,2.05,4.68c1.4,3.2,2.81,6.41,4.21,9.61
				c2.38,5.43,4.54,11.12,7.88,16.06c1.72,2.55,3.78,4.85,6.28,6.66c0.27,0.2,0.74-0.01,0.8-0.33c0.35-2.16-0.11-4.27-0.58-6.37
				c-0.43-1.9-0.85-3.85-0.43-5.77c2.68,1.85,5.28,3.8,7.77,5.89C436.29,141.76,437.06,141,436.53,140.56z"/>
			<path class="st9" d="M392.08,101.54c-0.19-0.67-1.24-0.39-1.05,0.28c0.7,2.46-1.03,4.78-2.34,6.7c-1.48,2.15-3,4.28-4.56,6.38
				c-2.98,4.03-6.12,7.94-9.37,11.75c-3.13-4.29-6.94-8.03-11.32-11.06c-0.57-0.4-1.11,0.54-0.54,0.94
				c4.41,3.06,8.27,6.88,11.36,11.26c0.18,0.26,0.6,0.41,0.85,0.12c2.77-3.22,5.44-6.53,8.02-9.9c2.6-3.4,5.23-6.85,7.51-10.48
				C391.77,105.74,392.68,103.67,392.08,101.54z"/>
			<path class="st9" d="M424.32,98.06c-1.79-2.86-3.18-5.95-4.09-9.2c-0.83-2.99-1.43-5.95-2.96-8.7
				c-2.57-4.62-6.49-8.26-9.68-12.42c-1.8-2.35-3.36-4.91-4.19-7.78c6.42-5.06,12.84-10.12,19.27-15.18
				c0.55-0.43-0.22-1.2-0.76-0.77c-6.5,5.12-13,10.25-19.51,15.37c-0.24,0.19-0.22,0.44-0.09,0.63c0,0.04,0,0.09,0.01,0.14
				c1.46,5.2,5.15,9.26,8.59,13.26c1.73,2.01,3.44,4.05,4.83,6.31c0.71,1.14,1.33,2.35,1.81,3.6c0.61,1.61,0.97,3.31,1.39,4.97
				c0.93,3.64,2.42,7.12,4.42,10.3C423.74,99.19,424.69,98.65,424.32,98.06z"/>
			<path class="st9" d="M414.54,268.02c-5.63-9.3-10.86-18.84-15.6-28.63c-4.75-9.82-9.01-19.88-12.66-30.16
				c-3.61-10.17-6.62-20.56-8.93-31.1c-1.15-5.25-2.11-10.53-2.9-15.85c-0.76-5.07-1.41-10.16-2.22-15.22
				c-1.59-9.85-3.84-19.8-8.84-28.54c-0.63-1.1-1.31-2.18-2.02-3.24c-0.39-0.58-1.33-0.04-0.94,0.54
				c5.72,8.46,8.44,18.39,10.21,28.34c1.83,10.28,2.88,20.67,4.96,30.91c2.15,10.58,5.03,21,8.51,31.22
				c3.49,10.24,7.58,20.26,12.17,30.05c4.6,9.8,9.69,19.37,15.2,28.69c0.7,1.18,1.4,2.35,2.11,3.52
				C413.96,269.15,414.91,268.62,414.54,268.02z"/>
			<path class="st9" d="M427.77,194.87c-3.47,4.04-7.08,7.96-10.84,11.74c-1.85,1.86-3.73,3.68-5.65,5.47
				c-0.99,0.92-1.99,1.84-2.99,2.74c-0.74,0.66-1.63,1.48-2.66,1.61c1.76-3.99,3.79-7.85,5.77-11.73c2.15-4.24,4.3-8.47,6.45-12.71
				c1.22-2.4,2.43-4.8,3.65-7.19c0.31-0.62-0.62-1.17-0.94-0.54c-4.29,8.46-8.6,16.9-12.88,25.37c-1.17,2.32-2.32,4.65-3.34,7.04
				c-0.13,0.3-0.05,0.72,0.33,0.8c1.93,0.39,3.43-1.02,4.75-2.21c1.63-1.47,3.24-2.97,4.83-4.49c3.2-3.07,6.31-6.25,9.31-9.52
				c1.37-1.49,2.7-3.01,4.02-4.53c-0.12,1.73-0.57,3.41-1.07,5.07c-0.66,2.17-1.34,4.33-2.02,6.49c-1.35,4.35-2.71,8.7-4.06,13.05
				c-0.21,0.67,0.84,0.94,1.05,0.27c1.38-4.43,2.76-8.87,4.14-13.3c0.68-2.2,1.39-4.39,2.05-6.6c0.62-2.09,1.12-4.23,1.02-6.43
				C428.67,194.83,428.09,194.5,427.77,194.87z"/>
			<path class="st9" d="M342.9,296.84c-1.25,3.05-2.49,6.09-3.74,9.14c-0.63,1.55-1.27,3.1-1.9,4.65c-0.6,1.46-1.09,3.07-1.84,4.46
				c-0.48,0.9-1.44,0.38-2.2,0.12l-2.34-0.8c-1.56-0.54-3.12-1.07-4.68-1.61c-1.51-0.52-3.01-1.03-4.52-1.55
				c-0.86-0.29-1.63-0.5-1.44-1.61c0.14-0.82,0.39-1.64,0.59-2.45c3.04-12.55,5.52-25.24,7.44-38.01
				c1.92-12.76,3.28-25.61,4.08-38.5c0.81-13.05,0.65-26.15,1.64-39.19c1-13.16,2.89-26.22,4.87-39.26
				c0.24-1.59,0.48-3.18,0.73-4.76c0.1-0.68-0.94-0.96-1.05-0.27c-2.05,13.4-4.1,26.82-5.3,40.34c-1.21,13.6-1.07,27.25-1.84,40.87
				c-0.76,13.5-2.15,26.97-4.15,40.35c-2,13.31-4.6,26.54-7.81,39.61c-0.27,1.11-0.67,2.39,0.36,3.24c0.46,0.37,1.07,0.53,1.61,0.72
				c0.83,0.29,1.66,0.57,2.49,0.86c3.17,1.09,6.34,2.18,9.51,3.26c1.15,0.39,2.21,0.5,2.89-0.69c0.76-1.34,1.23-2.93,1.81-4.36
				c1.31-3.2,2.62-6.4,3.93-9.61c0.63-1.55,1.27-3.1,1.9-4.65C344.22,296.47,343.17,296.2,342.9,296.84z"/>
			<path class="st10" d="M362.03,120.78c-1.22,2.58-2.43,5.17-3.65,7.75c-0.61,1.29-1.22,2.58-1.83,3.87
				c-0.22,0.46-1.34,3.42-1.82,3.25c-0.14-0.05-0.21-0.64-0.24-0.76c-0.09-0.35-0.18-0.69-0.28-1.04c-0.18-0.69-0.36-1.38-0.54-2.08
				c-0.36-1.38-0.71-2.77-1.06-4.16c-0.7-2.78-1.37-5.56-2.03-8.34c-0.16-0.68-1.21-0.4-1.05,0.28c1.14,4.88,2.35,9.74,3.63,14.58
				c0.03,0.1,0.05,0.2,0.07,0.31c-0.47-1.12-1.01-2.2-1.83-3.11c-1.04-1.16-2.58-2-4.17-1.87c-0.29,0.02-0.54,0.24-0.54,0.54
				c0,0.28,0.25,0.56,0.55,0.54c1.36-0.11,2.59,0.62,3.46,1.62c0.97,1.11,1.5,2.54,2.02,3.89c0.1,0.27,0.36,0.46,0.66,0.38
				c0.15-0.04,0.28-0.16,0.35-0.31c0.14,0.26,0.33,0.47,0.59,0.58c0.77,0.33,1.46-0.33,1.83-0.95c0.61-1.04,1.05-2.22,1.57-3.31
				c0.53-1.13,1.06-2.26,1.6-3.39c1.22-2.58,2.43-5.17,3.65-7.75C363.26,120.7,362.32,120.15,362.03,120.78z"/>
			<path class="st10" d="M356.03,137.57c-0.06-0.69-1.14-0.69-1.08,0.01c0.6,6.9,0.79,13.83,0.56,20.75
				c-0.02,0.7,1.06,0.69,1.08-0.01C356.82,151.4,356.63,144.47,356.03,137.57z"/>
			<path class="st10" d="M373.92,205.19c-8.68,5.87-17.01,12.25-24.94,19.12c-0.53,0.46,0.24,1.23,0.76,0.77
				c7.85-6.8,16.1-13.13,24.71-18.95C375.03,205.74,374.49,204.8,373.92,205.19z"/>
			<path class="st10" d="M376.39,217.99c-7.1,2.22-14,5.09-20.58,8.56c-0.62,0.33-0.08,1.27,0.54,0.94
				c6.5-3.43,13.31-6.26,20.32-8.46C377.33,218.83,377.06,217.78,376.39,217.99z"/>
		</g>
		<g>
			<path class="st3" d="M335.48,345.43c-0.31,0.24-0.66,0.28-1.04,0.32c-0.28,0.03-0.46,0.02-0.59,0.3
				c-0.08,0.17-0.1,0.36-0.19,0.53c-0.72,1.48-2.64,1.53-3.98,1.04c-0.95-0.34-1.82-0.81-2.79-1.08c-0.95-0.26-1.9-0.45-2.8-0.84
				c-3.18-1.38-5.04-4.71-5.68-7.98c-0.4-2.02-0.44-4.09-0.38-6.14c0.06-2.21,0.2-4.42,0.39-6.63c0.39-4.32,1.03-8.61,1.91-12.85
				c0.01-0.02,0.02-0.03,0.03-0.05c-0.04-0.31,0.2-0.67,0.6-0.56c3.06,0.84,6.1,1.77,9.12,2.77c0.96,0.33,2.2,0.56,2.8,1.48
				c0.63,0.99,0.74,2.41,0.97,3.53c0.55,2.68,0.94,5.39,1.19,8.11c0.24,2.67,0.48,5.46,0.18,8.13c-0.1,0.87-0.16,2.32-1,2.85
				c-0.36,0.23-0.78,0.2-1.17,0.07c-0.09-0.03-0.19-0.08-0.3-0.13c0.47,0.76,0.93,1.52,1.4,2.29c0.56,0.92,1.29,1.85,1.66,2.87
				C336.06,344.13,336.1,344.96,335.48,345.43z"/>
			<path class="st4" d="M335.15,326.17c-0.47-3.15-1.07-6.28-1.68-9.41c-0.12-0.63-1.09-0.37-0.97,0.26
				c0.92,4.67,1.96,9.42,2.21,14.19c0.12,2.25,0,4.54-0.73,6.69c-0.06,0.19-0.14,0.66-0.3,0.77c-0.23,0.16-0.39-0.21-0.49-0.37
				c-0.29-0.43-0.55-0.88-0.79-1.34c-0.49-0.94-0.88-1.94-1.19-2.95c-0.71-2.28-1.06-4.65-1.4-7c-0.09-0.64-1.06-0.37-0.97,0.26
				c0.35,2.39,0.71,4.79,1.44,7.1c0.34,1.09,0.77,2.17,1.31,3.18c0.39,0.73,1.02,2.23,2.02,2.26c1.07,0.03,1.37-1.63,1.58-2.39
				c0.33-1.18,0.49-2.41,0.55-3.63C335.86,331.24,335.52,328.69,335.15,326.17z"/>
			<path class="st4" d="M335.89,343.75c-0.29-0.5-0.73-0.9-1.12-1.32c-0.43-0.47-0.85-0.97-1.23-1.48
				c-0.79-1.07-1.46-2.23-2.01-3.45c-0.27-0.59-1.13-0.09-0.87,0.5c0.79,1.75,1.84,3.37,3.11,4.82c0.32,0.37,2.11,1.92,1.1,2.26
				c-0.9,0.3-2.13-0.26-2.9-0.68c-3.06-1.66-5.58-4.5-7.24-7.53c-0.96-1.74-1.64-3.61-2.04-5.56c-0.13-0.63-1.1-0.37-0.97,0.26
				c0.84,3.99,2.85,7.7,5.74,10.59c1.44,1.44,3.16,2.87,5.09,3.59c0.24,0.51,0.48,1.19-0.27,1.33c-0.7,0.13-1.51-0.09-2.17-0.31
				c-1.28-0.44-2.46-1.23-3.54-2.05c-2.04-1.55-3.79-3.52-5.01-5.77c-2.82-5.18-2.29-11.31-1.43-16.93
				c0.52-3.38,1.14-6.74,1.31-10.16c0.03-0.64-0.97-0.64-1,0.01c-0.22,4.54-1.28,9.03-1.76,13.55c-0.14,0.04-0.26,0.14-0.3,0.34
				c-0.45,2.34-0.81,4.7-0.9,7.08c-0.08,2.2,0,4.53,0.65,6.65c0.61,1.97,1.88,3.37,3.54,4.54c1.7,1.19,3.54,2.46,5.6,2.91
				c0.23,0.05,0.4-0.05,0.51-0.19c1.34,0.81,2.91,1.48,4.51,1.34c0.61-0.05,1.19-0.32,1.42-0.93c0.13-0.35,0.11-0.72,0.02-1.08
				c0.62,0.11,1.27,0.1,1.78-0.17C336.33,345.46,336.32,344.49,335.89,343.75z M318.97,338.81c-0.61-2.32-0.66-4.76-0.45-7.19
				c0.01,0.19,0.02,0.37,0.04,0.56c0.3,3.04,1.2,5.99,2.89,8.55c1.17,1.77,2.64,3.33,4.31,4.63c-1.21-0.56-2.34-1.34-3.42-2.08
				C320.68,342.13,319.49,340.78,318.97,338.81z"/>
		</g>
		<g>
			<path class="st3" d="M418.31,46.39c-0.26,0.6-0.77,1.01-1.27,1.4c-1.34,1.04-2.69,2.05-4.03,3.08l-8.08,6.15
				c-0.06,0.05-0.12,0.07-0.18,0.09c-0.08,0.26-0.36,0.46-0.65,0.27c-2.79-1.81-7.17-5.35-9.96-7.15c-2.44-1.58-4.88-3.15-7.3-4.72
				c-1.2-0.78-2.42-1.54-3.61-2.33c-0.94-0.64-2.14-1.35-2.79-2.3c-1.64-2.37,3.9-2.35,4.98-2.29c2.29,0.13,4.52,0.7,6.72,1.34
				c-2.39-3.31-4.83-6.58-7.32-9.8c-2.19-2.83-4.55-5.59-6.3-8.72c-0.44-0.78-0.84-1.6-1.18-2.43c-0.23-0.56-0.62-1.33-0.13-1.86
				c0.48-0.51,1.41-0.31,1.99-0.13c0.8,0.24,1.51,0.69,2.19,1.19c4.11,3.02,7.82,6.66,11.04,10.64c-1.26-2.48-2.54-4.94-3.79-7.42
				c-0.92-1.81-1.82-3.63-2.72-5.45c-0.85-1.72-1.68-3.46-2.27-5.28c-0.33-0.98-1.03-3.34,0.81-3.29c1.6,0.06,2.94,1.7,3.91,2.78
				c4.24,4.76,7.48,10.26,10.56,15.83c-0.57-2.96-1.15-5.91-1.72-8.87c-0.38-1.97-0.77-3.94-1.14-5.9
				c-0.34-1.72-0.72-3.48-0.21-5.21c0.07-0.21,0.24-0.34,0.46-0.35c0.96-0.07,1.49,0.84,1.98,1.53c0.64,0.91,1.24,1.82,1.83,2.75
				c1.18,1.87,2.26,3.78,3.26,5.75c1.67,3.3,3.06,6.72,4.19,10.25c0.33-2.27,0.69-4.53,1.06-6.78c0.42-2.48,0.62-5.28,2.14-7.38
				c0.22-0.32,0.75-0.31,0.86,0.11c0.97,3.64,1.82,7.31,2.54,11.02c1.27,6.47,3.75,14.77,4.25,21.35
				C418.5,44.97,418.6,45.72,418.31,46.39z"/>
			<path class="st4" d="M414.79,23.07c-0.29-1.73-0.61-3.45-0.94-5.17c-0.16-0.82-0.33-1.64-0.5-2.46c-0.18-0.86-0.31-1.76-0.58-2.6
				c-0.38-1.2-1.55-1.84-2.54-0.8c-0.99,1.03-1.36,2.7-1.63,4.06c-0.63,3.27-0.96,6.6-1.28,9.92c-2.55-6-4.24-12.43-7.9-17.89
				c-0.91-1.36-2.09-3.02-3.95-2.74c-0.16,0.02-0.29,0.19-0.33,0.33c-0.49,1.81-0.19,3.65,0.23,5.45c0.45,1.94,0.93,3.87,1.39,5.8
				c0.47,1.94,0.93,3.88,1.4,5.83c0.23,0.97,0.47,1.94,0.7,2.91c0.11,0.48,0.25,0.96,0.33,1.45c-3.62-6.38-6.61-13.37-12.22-18.3
				c-0.91-0.8-2.81-2.66-4.02-1.33c-0.48,0.52-0.41,1.3-0.26,1.93c0.21,0.9,0.52,1.78,0.83,2.65c1.27,3.59,3.03,6.98,4.91,10.27
				c1.22,2.14,2.5,4.24,3.74,6.37c-3.39-4.08-7.04-7.95-11.51-10.84c-0.9-0.58-2.86-1.99-3.74-0.61c-0.43,0.68-0.07,1.47,0.3,2.08
				c0.48,0.8,0.99,1.58,1.5,2.36c2.08,3.11,4.39,6.05,6.68,9c2.39,3.08,4.74,6.2,6.8,9.52c-2.04-0.92-4.2-1.53-6.43-1.79
				c-1.31-0.15-2.73-0.26-4.04-0.05c-1.01,0.17-2.1,1.02-1.73,2.17c0.17,0.52,0.62,0.85,1.04,1.16c0.65,0.47,1.32,0.92,1.98,1.37
				c1.27,0.86,2.56,1.7,3.86,2.52c2.49,1.56,5.12,3.48,7.7,4.9c2.78,1.53,6.54,5.16,9.32,6.62c0.53,0.28,1.15-0.3,0.67-0.66
				c-4.34-3.12-10-7.35-14.32-9.9c-2.36-1.39-4.68-2.87-6.94-4.41c-0.54-0.37-1.09-0.74-1.62-1.12c-0.48-0.34-1.19-0.85-0.54-1.43
				c0.45-0.4,1.21-0.35,1.76-0.37c0.69-0.02,1.37,0,2.06,0.05c2.93,0.22,5.8,1.1,8.37,2.52c0.53,0.29,0.99-0.52,0.47-0.81
				c-0.04-0.02-0.08-0.04-0.12-0.06c0-0.08-0.01-0.15-0.06-0.23c-3.53-5.96-8.12-11.16-12.18-16.75c-1.01-1.4-1.99-2.82-2.91-4.28
				c-0.25-0.4-1.55-2.24-0.28-2.03c0.72,0.12,1.43,0.69,2.03,1.08c2.77,1.8,5.23,4.02,7.5,6.41c2.57,2.71,4.9,5.63,7.21,8.55
				c0.34,0.43,0.97-0.11,0.74-0.56c-3.27-6.21-7.36-11.98-10.17-18.42c-0.71-1.62-1.33-3.28-1.82-4.99
				c-0.17-0.58-0.58-2.05,0.57-1.68c0.77,0.25,1.47,0.97,2.07,1.5c2.6,2.3,4.67,5.12,6.47,8.07c2.27,3.72,4.14,7.67,6.37,11.42
				c0.21,0.35,0.75,0.29,0.86-0.11c0.23-0.87,0.1-1.73-0.1-2.6c-0.22-0.97-0.47-1.93-0.7-2.9c-0.47-1.94-0.93-3.88-1.4-5.83
				c-0.47-1.94-0.94-3.88-1.4-5.83c-0.43-1.8-0.89-3.67-0.5-5.51c0.9,0.03,1.63,0.9,2.12,1.57c0.63,0.86,1.19,1.77,1.71,2.69
				c1.05,1.84,1.93,3.78,2.73,5.74c1.59,3.92,2.9,7.95,4.67,11.79c0.22,0.47,0.83,0.18,0.87-0.23c0.31-3.21,0.62-6.41,1.11-9.6
				c0.22-1.44,0.42-2.94,0.99-4.29c0.17-0.4,0.76-1.84,1.37-1.42c0.45,0.32,0.51,1.36,0.61,1.83c1.36,6.32,2.43,12.71,3.18,19.14
				c0.42,3.59,2.33,8.93,2.56,12.54c0.04,0.6,0.97,0.6,0.93,0C418.38,38.91,415.98,30.1,414.79,23.07z"/>
		</g>
		<g>
			<path class="st5" d="M368.4,61.27c2.46,2.96,3.87,6.81,3.79,10.66c-0.09,4.29-1.92,8.63-0.91,12.76
				c-0.63-1.04-1.27-2.09-1.91-3.13c-0.31-0.52-0.63-1.05-0.72-1.66c-0.1-0.67,0.12-1.34,0.29-2.01c0.54-1.97,0.8-4.03,0.76-6.08
				c-0.04-2.29-0.69-4.91-2.75-5.9c-2.47-1.17-5.44,0.81-6.6,3.3c-1.17,2.47-1.18,5.31-1.84,7.97c-3.84-2.48-6.98-6.02-9-10.11
				c-1.22-2.48-2.07-5.19-3.87-7.28c-1.79-2.1-4.98-3.39-7.35-1.98c-1.13,0.67-1.88,1.82-2.66,2.89c-1.31,1.82-2.91,3.59-5.03,4.31
				c-2.15,0.74-4.55,0.34-6.69,1.07c-2.46,0.82-4.17,2.98-6.02,4.8c-1.31,1.31-2.94,2.55-4.67,2.96c-0.7,0.17-1.42,0.21-2.15,0.06
				c-2.58-0.5-4.27-3.19-4.5-5.81c-0.22-2.62,0.69-5.19,1.64-7.65c0.93-2.44,2.08-5.08,4.43-6.22c1.67-0.81,3.62-0.68,5.43-1.12
				c4.53-1.09,7.5-5.45,11.67-7.51c2.46-1.21,5.28-1.6,7.64-2.97c1.46-0.85,2.69-2.03,4.11-2.94c1.42-0.92,3.15-1.56,4.78-1.13
				c3.4,0.9,4.11,5.47,6.7,7.86c1.77,1.64,4.35,2.14,6.16,3.72c1.56,1.38,2.38,3.38,3.59,5.08
				C364.35,57.46,366.64,59.14,368.4,61.27z"/>
			<path class="st11" d="M359.11,69.67l-0.42,3.69c-0.07,0.62-0.14,1.23-0.21,1.85c-0.07,0.64-0.06,1.4-0.9,1.04
				c-0.9-0.38-1.71-1.24-2.39-1.91c-0.72-0.72-1.39-1.51-1.99-2.34c-2.69-3.7-4.28-8.03-6.52-11.98c-0.34-0.61-1.29-0.07-0.94,0.54
				c2.08,3.67,3.59,7.65,5.95,11.16c1.03,1.54,2.21,3,3.62,4.21c0.89,0.77,2.93,2.49,3.91,0.87c0.24-0.4,0.26-0.88,0.32-1.34
				c0.07-0.62,0.14-1.23,0.21-1.85l0.45-3.96C360.27,68.97,359.18,68.98,359.11,69.67z"/>
			<path class="st11" d="M342.05,54.58c-2.13-0.83-4.53-0.73-6.61,0.22c-2.09,0.95-3.32,2.87-5.07,4.25
				c-0.96,0.76-2.04,1.13-3.27,1.15c-1.21,0.02-2.41-0.18-3.63-0.15c-1.11,0.03-2.21,0.28-3.13,0.93c-0.88,0.63-1.52,1.5-2.13,2.38
				c-1.46,2.1-3.99,5.29-6.9,3.52c-0.6-0.36-1.14,0.58-0.54,0.94c2.11,1.29,4.64,0.36,6.28-1.25c0.84-0.82,1.49-1.8,2.15-2.76
				c0.68-0.98,1.47-2,2.63-2.42c2.31-0.83,4.86,0.36,7.21-0.41c2.15-0.7,3.45-2.62,5.08-4.05c2.1-1.84,5.05-2.32,7.65-1.31
				C342.43,55.88,342.69,54.83,342.05,54.58z"/>
			<path class="st11" d="M312.84,58.95c-0.14-0.23-0.49-0.38-0.74-0.2c-1.18,0.85-1.9,2.24-1.84,3.7c0.01,0.28,0.25,0.55,0.54,0.54
				c0.28-0.01,0.55-0.24,0.54-0.54c-0.01-0.15,0-0.29,0.01-0.44c0-0.03,0.01-0.07,0.01-0.1c0-0.01,0-0.01,0-0.02c0,0,0,0,0-0.01
				c0.01-0.07,0.02-0.15,0.04-0.22c0.03-0.14,0.07-0.29,0.12-0.43c0.01-0.03,0.02-0.06,0.03-0.09c0-0.01,0.02-0.05,0.03-0.07
				c0.01-0.02,0.02-0.04,0.02-0.05c0.02-0.04,0.03-0.07,0.05-0.11c0.06-0.13,0.13-0.25,0.2-0.37c0.04-0.06,0.08-0.12,0.12-0.18
				c0,0,0.03-0.04,0.05-0.06c0.01-0.01,0.03-0.03,0.03-0.04c0.09-0.11,0.19-0.22,0.3-0.32c0.05-0.05,0.11-0.1,0.16-0.15
				c0.03-0.02,0.05-0.04,0.08-0.06c0.01-0.01,0.01-0.01,0.02-0.01c0.01,0,0.01,0,0.03-0.02C312.87,59.53,313.01,59.22,312.84,58.95z
				"/>
			<path class="st11" d="M351.73,58.18c-1.48-1.41-3.72-1.49-5.17-2.93c-1.32-1.31-1.99-3.14-3.3-4.46
				c-1.41-1.42-3.43-1.94-5.38-1.69c-2.43,0.3-4.5,1.74-6.25,3.36c-0.51,0.48,0.25,1.25,0.76,0.77c1.48-1.37,3.19-2.61,5.21-3
				c1.9-0.36,3.85,0.13,5.15,1.6c1.09,1.22,1.74,2.77,2.85,3.98c1.27,1.38,3,1.66,4.56,2.55c1.9,1.08,2.38,3.34,2.78,5.33
				c0.14,0.69,1.18,0.4,1.05-0.28C353.61,61.55,353.15,59.53,351.73,58.18z"/>
			<path class="st11" d="M356.43,63.89c-0.28-0.16-0.56-0.04-0.74,0.2c-1.67,2.19-3.29,4.43-4.84,6.71
				c-0.39,0.58,0.55,1.12,0.94,0.54c1.56-2.28,3.17-4.51,4.84-6.71C356.81,64.4,356.66,64.02,356.43,63.89z"/>
			<path class="st11" d="M358.05,67.33c-0.27-0.16-0.57-0.04-0.74,0.2l-4.11,5.76c-0.17,0.24-0.04,0.6,0.2,0.74
				c0.27,0.16,0.57,0.04,0.74-0.2l4.11-5.76C358.42,67.83,358.29,67.47,358.05,67.33z"/>
		</g>
		<g>
			<path class="st4" d="M339,96.32c-1.13,0.53-2.25,1.07-3.38,1.6c-1.69-3.59-3.52-7.11-5.51-10.55c-0.35-0.61-1.29-0.07-0.94,0.54
				c2.07,3.58,3.98,7.25,5.72,11c0.13,0.28,0.49,0.32,0.74,0.2c1.3-0.62,2.6-1.23,3.9-1.85C340.17,96.97,339.63,96.03,339,96.32z"/>
			<path class="st5" d="M325.56,81.66c-0.15-0.24-0.38-0.45-0.67-0.51c-0.29-0.06-0.54-0.01-0.81,0.11
				c-1.01,0.45-1.98,1.01-2.87,1.66c-0.24,0.18-0.43,0.36-0.51,0.67c-0.07,0.25-0.03,0.59,0.11,0.81c0.15,0.24,0.38,0.45,0.67,0.51
				c0.26,0.06,0.59,0.06,0.81-0.11c0.89-0.65,1.86-1.21,2.87-1.66c0.24-0.11,0.45-0.42,0.51-0.67
				C325.73,82.22,325.7,81.89,325.56,81.66z"/>
			<path class="st5" d="M342.22,73.67c-0.19-0.6-0.73-0.87-1.33-0.77c-2.01,0.35-3.95,1.17-5.61,2.37c-0.46,0.33-0.74,0.95-0.4,1.48
				c0.29,0.45,0.99,0.76,1.48,0.4c0.78-0.56,1.62-1.03,2.5-1.42c0.02-0.01,0.02-0.01,0.03-0.01c0.05-0.02,0.1-0.04,0.14-0.06
				c0.12-0.04,0.23-0.09,0.35-0.13c0.2-0.07,0.41-0.14,0.62-0.2c0.48-0.14,0.96-0.25,1.45-0.34
				C342.02,74.9,342.39,74.2,342.22,73.67z"/>
			<path class="st5" d="M325.53,86.47c-2.09,0-2.08,3.25,0.02,3.25C327.64,89.72,327.63,86.47,325.53,86.47z"/>
			<path class="st5" d="M340.44,77.99c-2.09,0-2.08,3.25,0.02,3.25C342.55,81.24,342.54,77.99,340.44,77.99z"/>
			<path class="st12" d="M335.28,105.13l9.86-6.61c0,0,3.02,6.19-1.75,8.95C338.62,110.23,335.28,105.13,335.28,105.13z"/>
		</g>
	</g>
	<g>
		<g>
			<path class="st3" d="M262.27,106.14c0.23,0.94,0.42,1.99-0.08,2.82c-1.11,1.78-4.31,0.82-5.55,2.5
				c-0.25,0.34-0.39,0.77-0.72,1.03c-0.72,0.59-1.76,0.11-2.65-0.12c-1.75-0.43-3.72,0.34-4.7,1.83c-0.27,0.4-0.52,0.89-0.99,0.99
				c-0.37,0.09-0.74-0.11-1.07-0.27c-1.95-0.98-4.46-1.24-6.21,0.04c-1.39,1.02-2.21,2.89-3.89,3.28c-1.49,0.35-3-0.66-4.52-0.5
				c-2.29,0.23-3.43,2.76-4.55,4.77c-0.1,0.16-0.21,0.34-0.38,0.4c-0.43,0.17-0.79-0.38-0.93-0.82c-2.43-7.37-4.68-14.79-6.77-22.24
				c-0.09-1.44,0.62-2.94,1.57-4.08c1.19-1.44,2.76-2.54,3.99-3.96c2.3-2.62,3.4-6.29,6.21-8.35c5.21-3.8,13.53-0.29,18.46-4.44
				c0.24-0.21,0.51-0.43,0.81-0.39c0.23,0.03,0.41,0.21,0.57,0.37c4.23,4.41,6.5,10.31,8.34,16.14
				C260.36,98.78,261.38,102.44,262.27,106.14z"/>
			<path class="st5" d="M219.26,99.85c2.09,7.46,4.35,14.87,6.77,22.24c0.14,0.44,0.5,1,0.93,0.82c0.17-0.07,0.28-0.24,0.38-0.4
				c1.13-2.01,2.27-4.54,4.55-4.77c1.52-0.16,3.04,0.85,4.52,0.5c1.68-0.39,2.5-2.27,3.89-3.28c1.76-1.28,2.49-1.54,4.44-0.56
				c0.34,0.16,0.7,0.36,1.07,0.27c0.47-0.1,0.72-0.59,0.99-0.99c0.99-1.5,4.73-1.75,6.47-1.31c0.89,0.23,1.93,0.7,2.65,0.12
				c0.33-0.26,0.47-0.69,0.72-1.03c1.24-1.68,4.44-0.73,5.55-2.5c0.5-0.82,0.3-1.88,0.08-2.82c-0.89-3.7-1.91-7.36-3.06-10.99
				c-1.83-5.83-4.11-11.73-8.34-16.14c-0.16-0.16-0.35-0.34-0.57-0.37c-0.3-0.04-0.57,0.18-0.81,0.39
				c-4.93,4.15-13.25,0.64-18.46,4.44c-2.81,2.06-3.91,5.72-6.21,8.35c-1.22,1.42-2.8,2.51-3.99,3.96
				C219.87,96.91,219.17,98.41,219.26,99.85z M230.65,134.05c-0.74-0.31-1.49-0.6-2.17-1.01c-2.57-1.52-3.91-4.44-5.04-7.22
				c-0.95-2.36-1.86-4.75-2.72-7.15c-0.11-0.33-0.25-0.68-0.52-0.9c-0.35-1.67-0.69-3.34-1.03-5.01c-0.46-2.19-0.92-4.44-1.96-6.4
				c0.08,0.03,0.15,0.06,0.23,0.11c-2.09-3.26-4.22-6.58-5.31-10.31c-1.11-3.72-1.05-7.97,1.03-11.24c2.34-3.7,6.81-5.58,9.3-9.18
				c0.92-1.32,1.54-2.84,2.6-4.04c1.35-1.55,3.31-2.44,5.18-3.27c1.76-0.78,3.58-1.58,5.46-1.75c1.69-0.46,3.58-0.18,5.04,0.77
				c0.88,0.56,1.6,1.36,2.51,1.86c1.89,1.06,4.24,0.78,6.32,1.39c2.58,0.75,4.6,2.85,5.86,5.21c1.28,2.36,1.94,5.01,2.64,7.6
				c1.59,5.76,3.53,11.43,5.82,16.95c0.42,1.03,0.86,2.05,1.3,3.07c1.18,2.69,2.47,5.5,2.28,8.42c-0.23,3.38-2.4,6.3-3.31,9.57
				c-0.5,1.78-0.62,3.65-0.95,5.47c-0.14,0.78-0.34,1.55-0.56,2.3c-1.05,3.51-2.97,6.76-5.55,9.37c-0.73,0.74-1.54,1.44-2.51,1.78
				c-2.83,0.99-5.71-1.29-8.69-1.55c-3.17-0.29-6.6,1.67-9.35,0.1c-1.57-0.9-2.38-2.72-3.82-3.83
				C232.1,134.69,231.38,134.35,230.65,134.05z"/>
			<path class="st11" d="M251.65,73.13c0.26,2.97-1.94,5.38-4.54,6.46c-2.99,1.25-6.31,1.07-9.48,1.13
				c-1.53,0.03-3.17,0.04-4.65,0.49c-1.27,0.39-2.23,1.21-2.97,2.3c-0.75,1.11-1.26,2.36-1.97,3.49c-0.8,1.27-1.78,2.41-2.9,3.41
				c-1.3,1.17-2.73,2.2-3.82,3.59c-0.99,1.27-1.68,2.72-2.08,4.27c-0.17,0.67,0.87,0.95,1.05,0.27c0.39-1.51,1.08-2.93,2.07-4.12
				c0.98-1.17,2.21-2.08,3.35-3.08c1.15-1.01,2.16-2.15,3.01-3.42c0.76-1.13,1.29-2.38,2-3.54c0.81-1.31,1.87-2.07,3.4-2.34
				c1.68-0.3,3.42-0.25,5.12-0.27c3.06-0.03,6.25-0.13,9.04-1.54c2.63-1.33,4.73-4.05,4.46-7.12
				C252.68,72.43,251.59,72.43,251.65,73.13z"/>
			<path class="st11" d="M245.56,73.63c-2.84,2.35-6.78,2.06-10.22,2.34c-3.1,0.26-6.33,1.1-8.22,3.76
				c-0.4,0.57,0.54,1.11,0.94,0.54c2.03-2.86,5.87-3.17,9.07-3.33c3.22-0.17,6.6-0.39,9.2-2.54
				C246.86,73.96,246.09,73.19,245.56,73.63z"/>
			<path class="st11" d="M224.33,84.14c-0.31-0.08-0.56,0.11-0.66,0.39c-0.96,2.64-2.91,4.88-5.38,6.22
				c-0.61,0.34-0.07,1.28,0.54,0.94c2.73-1.5,4.83-3.97,5.89-6.89C224.82,84.53,224.59,84.21,224.33,84.14z"/>
			<path class="st11" d="M263.89,111.78c-0.06,1.67-0.49,3.32-1.29,4.79c-0.7,1.28-1.67,2.43-2.04,3.87
				c-0.68,2.61,0.96,6.37-1.41,8.38c-0.53,0.45,0.23,1.22,0.76,0.77c2.61-2.22,1.05-5.79,1.64-8.64c0.33-1.59,1.51-2.83,2.21-4.26
				c0.75-1.54,1.15-3.2,1.21-4.91C265,111.08,263.92,111.08,263.89,111.78z"/>
			<path class="st11" d="M257.85,131.85c-0.31-0.08-0.56,0.11-0.66,0.39c-0.6,1.61-1.76,3.05-3.21,4c-0.24,0.16-0.35,0.47-0.2,0.74
				c0.14,0.24,0.49,0.36,0.74,0.2c1.72-1.12,3.01-2.75,3.73-4.67C258.34,132.24,258.11,131.92,257.85,131.85z"/>
		</g>
		<path class="st3" d="M230.13,141.65c0.17-2.54,0.35-5.07,0.52-7.6c0.73,0.3,1.45,0.64,2.08,1.12c1.43,1.11,2.24,2.93,3.82,3.83
			c2.75,1.57,6.19-0.39,9.35-0.1c2.98,0.26,5.86,2.54,8.69,1.55c0.98-0.34,1.79-1.04,2.51-1.78c2.58-2.6,4.5-5.85,5.55-9.37
			c1.46,5.07,3.22,10.06,5.22,14.94c0.47,1.13,0.94,2.24,1.43,3.36c0.16,0.38,0.34,0.77,0.29,1.17c-0.04,0.33-0.22,0.62-0.39,0.9
			c-5.11,8.23-10.83,16.08-17.11,23.45c-0.16,0.2-0.34,0.39-0.57,0.49c-0.7,0.31-1.41-0.4-1.85-1.04
			c-6.17-8.86-12.35-17.71-18.53-26.58c-0.39-0.55-0.78-1.13-0.96-1.79c-0.18-0.67-0.14-1.38-0.1-2.06
			C230.11,141.97,230.12,141.81,230.13,141.65z"/>
		<g>
			<path class="st8" d="M298.29,359.54c0.01,0.74,0.03,1.49,0.04,2.23H192.89v-0.29c0.52-16.75,0.96-40.56,1.31-57.8
				c1.08,0.56,2.4,0.68,3.62,0.78c15.74,1.3,31.47,2.6,47.2,3.9c6.27,0.52,12.56,1.04,18.82,0.52c5.79-0.49,11.51-1.85,17.32-1.81
				c4.29,0.03,8.56,0.85,12.87,0.75c0.46-0.01,0.93-0.03,1.38-0.15c-0.01,0.37-0.03,0.74-0.04,1.11c0.03,0.07,0.07,0.14,0.08,0.24
				c0.34,3.83,0.73,7.64,1.12,11.46C297.89,333.45,299.2,346.5,298.29,359.54z"/>
			<path class="st13" d="M245.41,334.35c1.31,2.47,1.32,5.4,1.3,8.19c-0.02,3.89-0.05,14.62-0.08,19.23h-8.67
				c-0.21-6.15-1.02-16.66-3.63-20.5c-1.83-2.7-4.41-4.77-6.57-7.21c-2.15-2.45-3.95-5.54-3.62-8.77c0.04-0.46,0.16-0.95,0.55-1.19
				c0.34-0.21,0.77-0.14,1.16-0.07c4.66,0.93,9.19,2.57,13.37,4.85C241.67,330.23,244.1,331.89,245.41,334.35z"/>
			<path class="st10" d="M194.78,306.24c0-0.7-1.09-0.69-1.08,0.01c0.05,13.43-0.02,26.86-0.21,40.29
				c-0.05,3.79-0.12,7.57-0.19,11.36c-0.01,0.7,1.07,0.69,1.08-0.01c0.26-13.43,0.4-26.86,0.42-40.29
				C194.79,313.81,194.79,310.02,194.78,306.24z"/>
			<path class="st10" d="M246.69,339.26c-0.15-2.83-0.31-5.8-2.46-7.9c-1.99-1.94-4.82-2.8-7.35-3.79
				c-3.68-1.43-7.37-2.86-11.05-4.29c-0.65-0.25-0.92,0.8-0.27,1.05c3.14,1.22,6.28,2.44,9.42,3.65c2.57,1,5.45,1.81,7.69,3.46
				c1.1,0.81,1.93,1.89,2.34,3.19c0.46,1.45,0.51,2.99,0.59,4.49c0.17,3.29,0.32,6.59,0.45,9.88c0.14,3.74,0.26,7.48,0.34,11.23
				c0.02,0.7,1.1,0.69,1.08-0.01C247.32,353.25,247.06,346.25,246.69,339.26z"/>
			<path class="st10" d="M284.77,321.81c-0.16-3.51-0.35-7.01-0.57-10.51c-0.04-0.69-1.13-0.69-1.08,0.01
				c0.79,12.39,1.17,24.81,1.15,37.22c-0.01,3.51-0.05,7.02-0.12,10.53c-0.01,0.7,1.07,0.69,1.08-0.01
				C285.48,346.63,285.33,334.21,284.77,321.81z"/>
		</g>
		<g>
			<path class="st3" d="M159.4,139.14c5.5,3.7,11.45,6.73,17.67,9.03c-2.05,8.75-3.61,17.63-4.69,26.55
				c-10.62-6.96-21.29-14.05-30.1-23.19c-2.05-2.11-4.06-4.49-4.64-7.37c-0.49-2.46,0.12-5,0.73-7.44
				c4.6-18.62,8.75-37.36,12.44-56.19c-0.01-0.05-0.04-0.09-0.04-0.14c-0.28-2.57-0.55-5.14-0.83-7.7
				c-0.24-2.23-0.48-4.45-0.72-6.67c-0.22-2.08-0.42-4.17-0.26-6.26c0.08-0.98,0.19-2,0.49-2.94c0.19-0.62,0.6-1.33,1.31-1.42
				c0.75-0.09,1.17,0.54,1.4,1.16c0.05,0.12,0.09,0.25,0.13,0.37c0.07-1.36,0.18-2.72,0.35-4.07c0.26-2.04,0.63-4.07,1.11-6.08
				c0.44-1.81,0.92-3.64,1.68-5.34c0.39-0.88,1.72-3.74,3.07-2.45c0.55,0.53,0.43,1.52,0.45,2.2c0.01,0.24,0.02,0.48,0.03,0.72
				c0.23-0.41,0.49-0.8,0.79-1.17c0.72-0.87,1.79-1.86,3-1.83c1.36,0.03,1.7,1.33,1.71,2.45c0.01,1.05,0,2.09,0,3.14
				c0.28-0.39,0.58-0.75,0.92-1.08c0.62-0.59,1.62-1.54,2.53-1.53c0.83,0.01,1.19,0.8,1.29,1.52c0.15,1.11,0.1,2.28,0.06,3.41
				c-0.09,2.45-0.4,4.89-0.53,7.35c-0.2,3.73-0.13,7.48,0.18,11.2c0.2-0.12,0.4-0.24,0.59-0.37c1.25-0.8,2.44-1.68,3.74-2.4
				c1.01-0.57,3.26-1.85,4.35-0.81c0.17,1.03-0.39,2.28-0.99,3.24c-3.8,6.18-7.85,12.22-12.11,18.1l-0.2,0.01
				c0.4,7.56-0.42,15.15-1.25,22.68C161.84,116.92,160.62,128.03,159.4,139.14z"/>
			<path class="st4" d="M176.34,147.88c-4.46-1.9-8.75-4.21-12.78-6.92c-0.51-0.34-1.02-0.69-1.52-1.05
				c-0.47-0.33-1.12-0.66-1.47-1.11c-0.38-0.48-0.16-1.31-0.12-1.87c0.06-0.71,0.12-1.42,0.18-2.13l0.66-7.87
				c0.25-2.98,0.5-5.96,0.75-8.94c0.06-0.69-1.03-0.69-1.08,0.01c-0.47,5.56-0.93,11.11-1.4,16.67c-0.06,0.67-0.11,1.33-0.17,2
				c-0.05,0.61-0.18,1.28-0.08,1.88c0.18,1.12,1.35,1.7,2.19,2.3c2.08,1.47,4.24,2.84,6.45,4.09c2.54,1.44,5.16,2.73,7.85,3.87
				C176.43,149.09,176.98,148.15,176.34,147.88z"/>
			<path class="st4" d="M178.67,62.15c-0.08-0.98-0.85-1.64-1.84-1.54c-0.65,0.06-1.24,0.39-1.81,0.68c-0.7,0.36-1.41,0.72-2.1,1.09
				c-1.4,0.74-2.78,1.51-4.15,2.31c-0.56,0.32-0.06,1.19,0.5,0.87c2.15-1.25,4.34-2.45,6.57-3.56c0.42-0.21,1.23-0.66,1.66-0.24
				c0.33,0.32,0.18,0.96,0.06,1.34c-0.33,1.1-0.95,2.14-1.55,3.11c-2.38,3.85-5.42,7.27-8.09,10.92c-1.51,2.07-2.92,4.21-4.07,6.5
				c-0.29,0.57,0.58,1.08,0.87,0.5c2.3-4.57,5.61-8.49,8.7-12.53c1.56-2.04,3.16-4.12,4.33-6.41
				C178.2,64.27,178.76,63.2,178.67,62.15z"/>
			<path class="st4" d="M167.9,41.72c-1.15,0-2.2,0.71-2.99,1.62c0.05-0.42,0.1-0.84,0.13-1.27c0.12-1.46,0.23-3.73-1.75-3.9
				c-1.59-0.14-2.82,1.09-3.76,2.33c0.02-0.42,0.03-0.83,0.01-1.24c-0.02-0.52-0.14-1.08-0.58-1.4c-1.06-0.77-2.29,0.49-2.91,1.26
				c-1.7,2.12-2.29,5.06-2.84,7.65c-0.6,2.79-0.96,5.63-1.1,8.49c-0.52-0.75-1.44-0.99-2.05-0.17c-0.3,0.4-0.43,0.9-0.55,1.38
				c-0.19,0.71-0.32,1.44-0.43,2.17c-0.18,1.32-0.25,2.65-0.24,3.98c0.01,2.86,0.27,5.73,0.48,8.58c0.23,3.14,0.51,6.28,0.93,9.41
				c-1,6.11-2.29,12.17-3.56,18.24c-1.27,6.08-2.55,12.17-3.82,18.25c-0.71,3.39-1.42,6.77-2.13,10.16
				c-1.15,3.51-2.04,7.1-2.65,10.74c-0.52,3.11-1.46,7.22,1.12,9.69c0.46,0.45,1.18-0.26,0.71-0.7c-1.2-1.15-1.48-2.81-1.42-4.41
				c0.07-1.76,0.4-3.53,0.71-5.26c0.57-3.15,1.36-6.25,2.33-9.3c0.04-0.05,0.08-0.12,0.1-0.21c0.02-0.1,0.04-0.21,0.07-0.31
				c0.03-0.09,0.05-0.18,0.08-0.27c0.03-0.08,0.03-0.16,0.02-0.22c2.5-11.96,5.06-23.9,7.5-35.88c0.69-3.39,1.34-6.79,1.9-10.21
				c0.03-0.08,0.06-0.17,0.04-0.28c-0.67-4.96-1.01-9.98-1.3-14.97c-0.14-2.44-0.21-4.93,0.19-7.35c0.1-0.57,0.22-1.14,0.37-1.71
				c0.1-0.38,0.3-1.38,0.78-0.8c0.65,0.78,0.78,2.1,0.97,3.06c0.57,2.84,0.97,5.71,1.23,8.6c0.06,0.64,1.06,0.64,1-0.01
				c-0.26-2.89-0.65-5.76-1.21-8.61c-0.07-0.38-0.15-0.77-0.23-1.15c0-0.01,0.01-0.02,0.01-0.04c0.01-2.93,0.26-5.85,0.77-8.74
				c0.45-2.55,0.95-5.3,2.08-7.64c0.23-0.49,0.5-0.96,0.83-1.39c0.28-0.37,0.93-1.24,1.44-1.24c0.61,0,0.37,1.52,0.36,1.87
				c-0.02,0.74-0.04,1.49-0.06,2.23c-0.08,2.94-0.15,5.88-0.23,8.81c-0.09,3.35-0.17,6.7-0.26,10.06c-0.02,0.64,0.98,0.64,1-0.01
				c0.17-6.48,0.34-12.95,0.5-19.43c0.07-0.04,0.15-0.09,0.2-0.17c0.6-0.87,1.23-1.81,2.13-2.39c0.4-0.26,0.9-0.5,1.39-0.46
				c0.63,0.05,0.83,0.6,0.89,1.15c0.12,1.08-0.08,2.26-0.21,3.33c-0.16,1.27-0.35,2.53-0.51,3.79c-0.62,4.97-0.78,9.99-0.5,14.99
				c0.04,0.64,1.04,0.64,1-0.01c-0.25-4.53-0.15-9.07,0.34-13.59c0.12-1.08,0.27-2.15,0.42-3.23c0,0,0,0,0,0
				c0.42-0.92,1.04-1.74,1.88-2.34c0.81-0.57,2.11-0.93,2.29,0.39c0.15,1.09-0.04,2.31-0.12,3.4c-0.08,1.22-0.18,2.43-0.29,3.64
				c-0.42,4.83-0.9,9.69-0.26,14.52c0.08,0.63,1.08,0.63,1-0.01c-0.58-4.38-0.24-8.8,0.15-13.18c0.2-2.22,0.4-4.45,0.5-6.68
				C169.84,43.93,169.91,41.72,167.9,41.72z"/>
		</g>
		<g>
			<path class="st3" d="M318.03,249.51c-0.16,5.62-0.55,11.23-0.95,16.84c-0.94,13.31-1.89,26.63-3.2,39.91
				c0.09,5.74-0.72,11.47-1.6,17.13c-0.8,5.06-1.75,10.14-3.51,14.96c-0.86,2.36-1.91,4.65-3.22,6.79
				c-1.23,2.01-2.63,4.23-4.94,5.08c-2.22,0.81-4.72,0.38-6.96-0.13c-1.01-0.23-2.17-0.51-2.18-1.78c0-0.66,0.28-1.32,0.47-1.94
				c0.22-0.71,0.44-1.42,0.66-2.13c1.55-5.03,3.1-10.07,4.65-15.1c-2.36,2.86-4.25,6.13-7.23,8.43c-0.25,0.2-0.6,0.19-0.78-0.11
				c-0.56-0.93-0.2-2.03,0.04-3.01c0.3-1.22,0.65-2.43,1.04-3.63c2.5-7.74,6.51-14.86,9.67-22.32c-0.16-0.03-0.01-0.92,0.23-1.33
				c0.79-20.96-0.25-42.01-3.09-62.81c-0.88-6.36-1.92-12.74-1.81-19.16c7.28,0.08,14.58-0.48,21.77-1.67l0.04,0.24
				C317.98,232.32,318.27,240.93,318.03,249.51z"/>
			<path class="st4" d="M306.27,331.67c-1.39,3.48-2.78,6.98-4.6,10.26c-0.89,1.61-1.88,3.18-3.01,4.63
				c-1.04,1.33-2.45,2.96-4.3,2.74c0.32-0.3,0.6-0.6,0.83-0.87c1.95-2.31,3.5-4.96,4.81-7.68c1.52-3.15,2.74-6.44,3.94-9.72
				c0.22-0.6-0.75-0.85-0.97-0.25c-1.92,5.22-3.88,10.51-7.08,15.1c-0.74,1.05-1.53,2.24-2.59,3c-0.23,0.17-0.54,0.38-0.83,0.44
				c-0.52,0.1-0.53-0.09-0.42-0.51c0.19-0.77,0.49-1.52,0.73-2.27c0.97-3,1.95-5.99,2.92-8.99c1.1-3.39,2.2-6.78,3.3-10.17
				c0.08-0.23-0.02-0.41-0.17-0.51c0.06-0.1,0.12-0.21,0.18-0.31c0.32-0.56-0.54-1.06-0.87-0.5c-1.37,2.35-2.75,4.71-4.44,6.84
				c-0.85,1.07-1.78,2.08-2.81,2.99c-0.26,0.23-0.52,0.45-0.79,0.66c-0.17,0.13-0.46,0.47-0.68,0.48c-0.32,0.01-0.19-0.23-0.15-0.48
				c0.03-0.15,0.06-0.31,0.09-0.46c0.09-0.42,0.19-0.84,0.31-1.25c0.84-2.98,2.07-5.89,3.2-8.77c1.17-3,2.4-5.98,3.67-8.94
				c1.4-3.26,2.87-6.49,4.39-9.69c0.27-0.58-0.59-1.08-0.87-0.5c-3.01,6.34-5.8,12.79-8.34,19.33c-0.63,1.62-1.24,3.24-1.84,4.86
				c-0.59,1.62-1.22,3.24-1.53,4.94c-0.11,0.57-0.28,1.31,0.21,1.75c0.44,0.41,1.05,0.26,1.51-0.01c1.23-0.73,2.32-1.88,3.27-2.93
				c1.5-1.67,2.76-3.53,3.94-5.43c-1.95,6.01-3.9,12.02-5.86,18.03c-0.28,0.85-0.99,2.66,0.45,2.92c0.56,0.1,1.12-0.1,1.64-0.43
				c0.04,0.14,0.15,0.25,0.33,0.29c1.96,0.41,3.63-0.74,4.85-2.16c1.3-1.5,2.41-3.18,3.41-4.9c2.07-3.58,3.61-7.44,5.13-11.27
				C307.48,331.33,306.51,331.08,306.27,331.67z"/>
			<path class="st4" d="M313.2,307.82c-0.75,6.57-1.5,13.15-2.57,19.68c-0.51,3.1-1.06,6.2-1.9,9.23c-0.81,2.91-1.84,5.88-3.52,8.41
				c-1.76,2.65-4.59,4.78-7.92,4.47c-0.64-0.06-0.63,0.94,0.01,1c6.46,0.6,9.95-6.14,11.69-11.29c1.07-3.18,1.74-6.48,2.32-9.78
				c0.58-3.37,1.07-6.76,1.52-10.16c0.5-3.85,0.94-7.71,1.38-11.57C314.27,307.17,313.27,307.18,313.2,307.82z"/>
			<path class="st4" d="M300.85,275.61c-0.54-10.54-1.53-21.06-2.68-31.55c-0.65-5.93-1.35-11.85-2.05-17.77
				c-0.08-0.63-1.08-0.63-1,0.01c1.24,10.49,2.49,20.97,3.44,31.49c0.96,10.5,1.63,21.03,1.72,31.57c0.05,5.95-0.08,11.9-0.44,17.84
				c-0.04,0.64,0.96,0.64,1-0.01C301.47,296.68,301.39,286.13,300.85,275.61z"/>
		</g>
		<g>
			<path class="st4" d="M249.12,109.88c-0.31-0.09-0.55,0.12-0.66,0.39c-0.34,0.82-0.78,1.61-1.3,2.33
				c-0.25,0.34-0.52,0.7-0.83,0.99c-0.35,0.33-0.76,0.29-1.21,0.25c-1.91-0.15-3.73-0.9-5.5-1.61c-0.65-0.26-0.91,0.79-0.27,1.05
				c1.04,0.41,2.08,0.83,3.15,1.14c1.03,0.3,2.19,0.59,3.26,0.52c1.02-0.06,1.61-0.84,2.18-1.6c0.65-0.86,1.15-1.8,1.56-2.79
				C249.62,110.27,249.38,109.95,249.12,109.88z"/>
			<path class="st4" d="M244.33,106.9c-0.82-4.04-2.07-7.98-3.71-11.77c-0.28-0.64-1.22-0.1-0.94,0.54c1.6,3.7,2.8,7.56,3.6,11.51
				C243.42,107.86,244.46,107.58,244.33,106.9z"/>
			<path class="st5" d="M233.95,97.26c-0.16-0.52-0.76-0.97-1.33-0.77c-2.05,0.74-4.03,1.66-5.9,2.78c-0.49,0.29-0.72,0.98-0.4,1.48
				c0.31,0.49,0.96,0.72,1.48,0.4c0.88-0.53,1.78-1.01,2.71-1.45c0.45-0.22,0.92-0.42,1.38-0.62c0.05-0.02,0.07-0.03,0.08-0.03
				c0.05-0.02,0.1-0.04,0.14-0.06c0.1-0.04,0.19-0.08,0.29-0.11c0.26-0.1,0.52-0.2,0.78-0.29C233.72,98.4,234.14,97.85,233.95,97.26
				z"/>
			<g>
				<path class="st5" d="M245.91,90.41C245.91,90.41,245.91,90.41,245.91,90.41C245.88,90.42,245.86,90.43,245.91,90.41z"/>
				<path class="st5" d="M252.61,91.14c-0.19-0.59-0.73-0.88-1.33-0.77c-2.26,0.43-4.44,1.12-6.56,1.99
					c-0.53,0.22-0.69,1.03-0.4,1.48c0.35,0.55,0.92,0.64,1.48,0.4c0.02-0.01,0.03-0.01,0.07-0.03c0.07-0.03,0.15-0.06,0.22-0.09
					c0.11-0.04,0.22-0.09,0.33-0.13c0.26-0.1,0.51-0.19,0.77-0.28c0.5-0.18,1-0.34,1.51-0.49c1.04-0.31,2.08-0.56,3.15-0.76
					C252.4,92.36,252.78,91.67,252.61,91.14z"/>
			</g>
			<path class="st5" d="M248.97,97.8c-2.09,0-2.08,3.25,0.02,3.25C251.08,101.06,251.07,97.8,248.97,97.8z"/>
			<path class="st5" d="M233.38,102.43c-2.09,0-2.08,3.25,0.02,3.25C235.49,105.68,235.48,102.43,233.38,102.43z"/>
			<path class="st12" d="M240.56,119.38l11.51-2.88c0,0,0.75,6.85-4.68,7.82C241.97,125.3,240.56,119.38,240.56,119.38z"/>
		</g>
		<g>
			<path class="st14" d="M318.24,216.92c-0.95,0.38-2.08,0.44-3.13,0.47c-6.92,0.15-13.83,0.3-20.75,0.46
				c-0.24,2.45-0.48,4.89-0.7,7.34c-0.49,4.99-0.98,9.98-1.45,14.97c-0.38,3.88-0.75,7.84,0.05,11.66c0.59,2.72,1.75,5.31,2.15,8.06
				c0.72,5.02-1.18,10.02-1.45,15.08c-0.54,10.19,5.5,20.03,4.19,30.15c-0.09,0.76-0.26,1.56-0.81,2.08
				c-0.26,0.24-0.59,0.39-0.92,0.49c-0.44,0.12-0.92,0.14-1.38,0.15c-4.3,0.1-8.57-0.72-12.87-0.75
				c-5.81-0.04-11.53,1.32-17.32,1.81c-6.25,0.52-12.55,0-18.82-0.52c-15.73-1.3-31.46-2.6-47.2-3.9c-1.22-0.1-2.54-0.22-3.62-0.78
				c-0.29-0.13-0.57-0.3-0.83-0.52c-1.93-1.59-1.89-4.52-1.63-7c1.72-17.01,5.13-34.04,3.5-51.05c-0.59-6.18-1.83-12.3-2.05-18.51
				c-0.4-12.19,3.22-24.48,1.44-36.49c-2.3-1.18-4.61-2.37-6.89-3.57c-1.04-0.53-2.12-1.08-3.28-1.13c-1.77-0.05-3.97,0.87-5-0.55
				c-0.29-0.4-0.39-0.91-0.46-1.4c-0.12-0.89-0.15-1.79-0.11-2.68c0.08-2.11,0.51-4.23,0.98-6.31c1.75-7.7,3.97-15.44,3.65-23.32
				c-0.07-1.41-0.2-2.83,0.11-4.21c0.03-0.16,0.08-0.33,0.13-0.48c0.38-1.2,1.16-2.3,2.33-2.72c2.12-0.76,4.3,0.92,6.54,1.25
				c2.41,0.36,4.75-0.9,7.18-1.06c3.18-0.22,6.4,1.44,9.46,0.61c1.56-0.42,2.91-1.45,4.46-1.9c2.51-0.74,5.57,0.04,7.59-1.65
				c0.76-0.63,1.26-1.55,2.07-2.12c1.34-0.94,3.27-0.67,4.62,0.27c0.9,0.64,1.58,1.52,2.12,2.49c-0.01,0.16-0.02,0.33-0.03,0.49
				c-0.04,0.68-0.09,1.39,0.1,2.06c0.18,0.66,0.57,1.24,0.96,1.79c6.18,8.87,12.36,17.72,18.53,26.58c0.44,0.64,1.15,1.35,1.85,1.04
				c0.24-0.1,0.41-0.29,0.57-0.49c6.28-7.37,12-15.22,17.11-23.45c0.17-0.28,0.35-0.57,0.39-0.9c0.04-0.4-0.13-0.79-0.29-1.17
				c-0.49-1.12-0.96-2.23-1.43-3.36c4.07,0.23,8.66-2.34,11.76,0.24c1.22,1.01,1.85,2.61,3.12,3.56c2.1,1.57,5.05,0.78,7.67,0.77
				c4.63-0.02,8.94,2.67,11.9,6.21c2.97,3.54,4.78,7.89,6.42,12.22c5.35,14.19,9.2,28.95,11.46,43.96c0.26,1.69,0.42,3.63-0.74,4.89
				C319.14,216.46,318.7,216.72,318.24,216.92z"/>
			<path class="st7" d="M295.32,225.2c-0.56,0-1.12-0.01-1.67-0.02c0.23-2.45,0.47-4.89,0.7-7.34c6.92-0.15,13.83-0.3,20.75-0.46
				c1.05-0.02,2.18-0.09,3.13-0.47c0.14,2.14,0.15,4.27,0.03,6.42c-0.39,0.07-0.79,0.13-1.18,0.2
				C309.9,224.72,302.6,225.28,295.32,225.2z"/>
			<path class="st7" d="M177.07,148.17c0.14-0.64,0.3-1.29,0.46-1.93c0.1-0.4,0.23-0.85,0.57-1.06c0.34-0.21,0.77-0.13,1.16-0.04
				c1.53,0.35,3.04,0.79,4.51,1.34c-0.05,0.15-0.1,0.31-0.13,0.48c-0.3,1.38-0.17,2.8-0.11,4.21c0.31,7.88-1.91,15.62-3.65,23.32
				c-0.47,2.08-0.9,4.2-0.98,6.31c-1.35-0.26-2.72-0.52-4.08-0.78c-0.64-0.12-1.3-0.25-1.81-0.67c-0.96-0.8-0.91-2.28-0.77-3.52
				c0.04-0.37,0.09-0.73,0.14-1.09C173.46,165.8,175.02,156.92,177.07,148.17z"/>
			<path class="st15" d="M210.01,151.95c-0.12-0.27-0.5-0.34-0.74-0.2c-0.99,0.57-1.54,1.54-2.01,2.55
				c-0.53,1.17-1.02,2.35-1.48,3.55c-0.94,2.45-1.76,4.95-2.53,7.47c-1.55,5.05-2.95,10.16-4.92,15.07
				c-0.93,2.31-2.01,4.55-3.27,6.7c0.02-0.72,0.2-1.48,0.29-2.12c0.15-1.12,0.32-2.24,0.49-3.36c0.34-2.2,0.72-4.39,1.09-6.58
				c0.74-4.41,1.44-8.84,1.75-13.31c0.15-2.2,0.2-4.41,0.12-6.61c-0.03-0.81,0-1.72-0.46-2.44c-0.36-0.56-1.04-0.83-1.65-0.51
				c-0.71,0.37-1.13,1.29-1.39,1.99c-0.33,0.9-0.46,1.85-0.59,2.79c-0.33,2.26-0.66,4.52-0.98,6.78c-0.75,5.18-1.5,10.37-2.26,15.55
				c-0.1,0.68,0.95,0.96,1.05,0.27c0.62-4.3,1.25-8.6,1.87-12.89c0.32-2.17,0.63-4.34,0.95-6.51c0.14-0.97,0.28-1.95,0.42-2.92
				c0.14-0.94,0.25-1.9,0.6-2.79c0.13-0.33,0.3-0.71,0.53-0.99c0.17-0.2,0.28-0.41,0.51-0.23c0.12,0.09,0.17,0.36,0.21,0.5
				c0.25,1,0.15,2.2,0.15,3.23c0.01,2.07-0.09,4.15-0.27,6.22c-0.36,4.2-1.05,8.36-1.75,12.51c-0.39,2.32-0.79,4.64-1.14,6.97
				c-0.17,1.12-0.32,2.24-0.47,3.36c-0.13,1.01-0.22,1.94,0.18,2.9c0.17,0.41,0.74,0.31,0.94,0c5.51-8.71,7.39-18.99,10.78-28.59
				c0.5-1.41,1.03-2.81,1.61-4.18c0.42-0.98,0.82-2.22,1.62-3c0.25,0.95,0.19,1.97,0.03,2.94c-0.2,1.18-0.47,2.35-0.76,3.51
				c-0.59,2.41-1.29,4.78-2.08,7.13c-1.59,4.7-3.52,9.28-5.58,13.8c-1.15,2.53-2.34,5.05-3.53,7.56c-0.3,0.63,0.64,1.17,0.94,0.54
				c4.41-9.31,8.86-18.71,11.31-28.76C210.19,157.34,211.12,154.43,210.01,151.95z"/>
			<path class="st15" d="M232.65,162.4c-0.17-0.66-0.36-1.31-0.56-1.95c-0.79-2.48-1.84-4.88-3.12-7.15
				c-1.43-2.53-3.17-4.88-5.14-7.02c-0.47-0.51-1.25,0.25-0.77,0.76c3.08,3.33,5.54,7.22,7.2,11.45c0.41,1.05,0.77,2.12,1.09,3.21
				c0.15,0.51,0.28,1.02,0.4,1.53c0.01,0.04,0.21,0.71,0.15,0.74c-0.03,0.02-0.52-0.63-0.53-0.65c-1.57-1.99-3.09-4.02-4.55-6.1
				c-1.66-2.36-3.24-4.76-4.75-7.22c-0.37-0.59-1.31-0.06-0.94,0.54c1.55,2.53,3.18,5,4.89,7.42c0.83,1.18,1.68,2.34,2.55,3.49
				c0.41,0.54,0.82,1.09,1.24,1.63c0.44,0.56,0.85,1.22,1.37,1.71c0.79,0.73,1.82,0.24,1.8-0.82
				C232.96,163.44,232.78,162.9,232.65,162.4z"/>
			<path class="st15" d="M282.46,156.52c-3.44,3.4-6.99,6.69-10.64,9.85c-3.67,3.18-7.41,6.34-11.36,9.17
				c-0.91,0.65-1.84,1.28-2.82,1.82c-0.29,0.16-1.21,0.82-1.53,0.66c-0.23-0.12-0.04-0.37,0.08-0.59c0.14-0.24,0.31-0.45,0.47-0.67
				c1.2-1.69,2.5-3.31,3.83-4.9c2.64-3.15,5.42-6.18,7.95-9.42c2.8-3.57,5.27-7.39,6.81-11.68c0.24-0.66-0.81-0.93-1.05-0.27
				c-3,8.35-9.57,14.64-15.1,21.35c-0.69,0.84-1.38,1.7-2.04,2.56c-0.63,0.82-1.36,1.66-1.85,2.57c-0.38,0.7-0.52,1.73,0.37,2.11
				c0.88,0.37,1.98-0.42,2.7-0.83c2.12-1.2,4.04-2.73,5.95-4.23c2.04-1.6,4.04-3.23,6.02-4.9c4.48-3.77,8.8-7.72,12.96-11.84
				C283.72,156.8,282.96,156.03,282.46,156.52z"/>
			<path class="st15" d="M292.54,179.16c-0.47-3.48-0.88-6.97-1.16-10.48c-0.06-0.69-1.14-0.69-1.08,0.01
				c0.99,12.25,3.64,24.33,4.19,36.62c0.16,3.49,0.13,6.99-0.15,10.48c-0.05,0.7,1.03,0.69,1.08-0.01
				C296.39,203.49,294.16,191.29,292.54,179.16z"/>
			<path class="st15" d="M262.31,277.7c1.63-0.99,3.27-1.95,4.91-2.9c3.22-1.87,6.45-3.73,9.58-5.74c3.56-2.28,6.99-4.76,10.11-7.62
				c0.52-0.47-0.25-1.24-0.76-0.77c-5.99,5.49-13.11,9.48-20.09,13.55c-1.71,1-3.47,1.97-5.13,3.06c-1.36,0.9-2.25,2.27-1.52,3.9
				c0.76,1.7,2.59,2.29,4.29,2.55c2.16,0.34,4.35,0.58,6.53,0.77c5.09,0.45,10.21,0.53,15.32,0.27c0.69-0.04,0.69-1.12-0.01-1.08
				c-4.26,0.22-8.53,0.2-12.79-0.08c-2.13-0.14-4.25-0.34-6.37-0.6c-1.68-0.21-3.96-0.21-5.32-1.38c-0.63-0.54-1.08-1.47-0.72-2.29
				C260.71,278.56,261.63,278.12,262.31,277.7z"/>
			<path class="st15" d="M252.8,296.1c-13.27-0.19-26.71-0.4-39.69-3.5c-3.61-0.86-7.16-1.95-10.62-3.31
				c-0.65-0.25-0.92,0.8-0.27,1.05c12.44,4.87,25.87,6.15,39.12,6.6c3.82,0.13,7.65,0.19,11.48,0.24
				C253.5,297.2,253.5,296.11,252.8,296.1z"/>
		</g>
	</g>
	<g>
		<g>
			<path class="st5" d="M136.08,146.24c0,4.1-0.1,8.22-0.33,12.32c-0.28,6.49-0.96,12.98-2.05,19.39c-0.15-0.01-0.29-0.03-0.44-0.04
				c-0.01,0.04-0.02,0.09-0.03,0.14c-0.86,3.3-2.07,6.48-3.49,9.57c-2.85,6.22-6.47,12.09-9.96,17.97
				c-3.47,5.85-7.01,11.66-10.85,17.27c-3.52,5.13-7.27,10.12-11.45,14.75c-0.3,0.35-0.63,0.69-0.94,1.04
				c-4.29,4.62-9.21,8.74-15.23,10.87c-5.76,2.05-12.08,2.29-18.05,1.05c-5.81-1.19-11.73-3.8-15.99-8.02
				c-1.06-1.05-1.95-2.18-2.71-3.36c-2.38-3.06-3.9-6.81-4.22-10.69c-0.44-5.67,1.56-11.26,4.08-16.38c0.99-2.02,2.06-4,3.11-5.98
				c0.13-0.28,0.25-0.56,0.38-0.85c1.41-3.28,2.8-6.58,4.16-9.89c4.08-9.92,7.92-19.93,11.52-30.03c2.41-6.75,4.72-13.55,6.91-20.38
				c1.27-3.97,2.46-7.97,3.67-11.95c1.37-5.84,3.11-11.52,6.03-16.76c0.38-0.68,0.79-1.35,1.21-2.02c0.77-1.32,1.6-2.61,2.55-3.83
				c3.63-4.72,8.59-8.03,14.24-9.8c5.81-1.81,12.36-2.21,18.31-0.88c2.92,0.65,5.68,1.85,8.03,3.7c2.06,1.62,3.74,3.65,5.07,5.89
				c2.79,4.63,4.16,10.02,4.98,15.32C135.7,131.82,136.08,139.03,136.08,146.24z"/>
			<path class="st11" d="M120.49,105.08c-2.1,3.06-4.61,5.83-7.45,8.22c-1.43,1.2-2.94,2.3-4.53,3.3c-0.75,0.47-1.51,0.92-2.29,1.34
				c-0.79,0.43-1.98,1.3-2.9,1.08c-0.68-0.17-0.95,0.88-0.27,1.05c0.99,0.24,1.86-0.23,2.73-0.67c0.92-0.47,1.82-0.97,2.71-1.5
				c1.68-1.02,3.28-2.15,4.81-3.39c3.13-2.55,5.86-5.55,8.14-8.87C121.82,105.05,120.88,104.51,120.49,105.08z"/>
			<path class="st11" d="M97.68,120.18c-1.79,0.39-3.59,0.73-5.4,0.99c-0.91,0.13-1.83,0.25-2.75,0.35
				c-0.86,0.09-1.75,0.24-2.6-0.03c-0.66-0.21-0.94,0.84-0.27,1.05c0.87,0.28,1.77,0.18,2.66,0.09c0.94-0.1,1.87-0.21,2.81-0.35
				c1.95-0.27,3.9-0.63,5.82-1.05C98.64,121.08,98.36,120.03,97.68,120.18z"/>
			<path class="st11" d="M113.29,99.33c-5.36-0.14-10.86-0.27-16.04,1.33c-4.4,1.36-8.28,4-11.45,7.31
				c-7.16,7.46-10.29,17.53-13.2,27.21c-1.92,6.39-3.84,12.77-5.76,19.16c-0.2,0.67,0.85,0.94,1.05,0.27
				c1.66-5.53,3.32-11.06,4.98-16.59c1.51-5.02,2.95-10.09,4.91-14.96c3.44-8.57,9.08-17.17,18-20.73
				c5.55-2.22,11.65-2.06,17.51-1.9C114,100.44,113.99,99.35,113.29,99.33z"/>
			<path class="st11" d="M65.37,249.8c-4.25-0.22-8.41-2.01-12.11-4.03c-3.53-1.93-6.81-4.48-9.08-7.84
				c-2.37-3.52-3.27-7.62-2.97-11.82c0.31-4.43,1.85-8.67,3.6-12.72c2.06-4.75,4.26-9.45,6.41-14.16c0.29-0.63-0.65-1.18-0.94-0.54
				c-2,4.41-4.04,8.8-6,13.23c-1.86,4.19-3.53,8.51-4.05,13.1c-0.49,4.29,0.16,8.66,2.36,12.42c2.1,3.58,5.27,6.38,8.8,8.51
				c2.09,1.26,4.31,2.3,6.57,3.19c2.38,0.94,4.85,1.62,7.42,1.75C66.07,250.92,66.06,249.83,65.37,249.8z"/>
			<path class="st11" d="M50.31,207.47c-4.49,7.1-7,15.35-7.24,23.74c-0.02,0.7,1.06,0.69,1.08-0.01c0.24-8.21,2.71-16.25,7.1-23.19
				C51.62,207.42,50.68,206.88,50.31,207.47z"/>
			<path class="st11" d="M51.72,212.7c-1.86,3.77-3.13,7.79-3.76,11.95c-0.1,0.68,0.95,0.96,1.05,0.27c0.61-4.06,1.83-8,3.65-11.68
				C52.96,212.62,52.03,212.08,51.72,212.7z"/>
			<path class="st11" d="M62.43,235.57c-0.3-0.08-0.56,0.11-0.66,0.39c-0.79,2.21-1.91,4.29-3.29,6.19c-0.17,0.24-0.04,0.6,0.2,0.74
				c0.28,0.16,0.57,0.04,0.74-0.2c1.44-1.98,2.58-4.16,3.4-6.46C62.91,235.96,62.69,235.64,62.43,235.57z"/>
			<path class="st11" d="M136.52,141.82c-0.11-0.69-1.16-0.4-1.05,0.28c0.74,4.44,0.29,9.03-0.03,13.49
				c-0.32,4.54-0.75,9.06-1.29,13.58c-0.31,2.61-0.67,5.21-1.05,7.81c-0.1,0.68,0.95,0.96,1.05,0.27
				c1.37-9.19,2.38-18.48,2.74-27.76C136.98,146.93,136.94,144.36,136.52,141.82z"/>
		</g>
		<g>
			<path class="st7" d="M145.57,287.36c6.77,23.63,10.62,48.1,11.44,72.66v1.76H61.54c-6.82-30.86-0.42-64.43,17.24-90.63h0.01
				c2.79-0.54,5.69-1.47,8.4-1.96c3.93-0.7,7.98-0.34,11.96,0.02c12.6,1.16,25.2,2.32,37.8,3.48c1.29,0.12,2.69,0.18,4.04,0.1
				C142.64,277.59,144.17,282.46,145.57,287.36z"/>
			<path class="st9" d="M77.62,272.51c-3.11,5.06-6.23,10.13-8.92,15.42c-2.7,5.3-4.89,10.81-6.38,16.58
				c-3.06,11.83-4.27,24.3-3.72,36.5c0.31,6.85,1.22,13.67,2.77,20.36c0.16,0.68,1.2,0.4,1.05-0.28
				c-2.73-11.82-3.43-24.05-2.4-36.12c0.52-6.06,1.44-12.11,2.82-18.03c1.36-5.82,3.35-11.41,5.97-16.78
				c2.88-5.9,6.32-11.5,9.75-17.09C78.92,272.46,77.98,271.92,77.62,272.51z"/>
			<path class="st9" d="M84.5,273.97c-5.26,7.71-9.83,15.87-13.65,24.38c-0.28,0.63,0.65,1.18,0.94,0.54
				c3.82-8.51,8.39-16.67,13.65-24.38C85.83,273.93,84.89,273.39,84.5,273.97z"/>
			<path class="st9" d="M70.09,304.32c0.17-0.68-0.88-0.95-1.05-0.27c-3.6,14.54-4.87,29.65-3.74,44.59
				c0.31,4.15,0.82,8.29,1.5,12.4c0.11,0.69,1.16,0.4,1.05-0.28c-2.41-14.6-2.48-29.58-0.22-44.2
				C68.27,312.44,69.09,308.36,70.09,304.32z"/>
			<path class="st9" d="M143.85,300.96c-6.59,6.87-14.34,12.6-22.84,16.88c-2.42,1.22-4.9,2.32-7.42,3.29
				c-0.64,0.25-0.37,1.3,0.28,1.05c9.02-3.48,17.41-8.49,24.75-14.78c2.09-1.79,4.09-3.69,6-5.68
				C145.09,301.22,144.33,300.45,143.85,300.96z"/>
			<path class="st9" d="M116.52,329.91c-0.39-2.57-0.97-5.1-2.15-7.43c-0.32-0.62-1.26-0.08-0.94,0.54
				c1.04,2.06,1.58,4.31,1.95,6.57c0.39,2.39,0.65,4.8,0.9,7.21c0.51,4.97,0.8,9.95,0.89,14.95c0.05,2.81,0.03,5.62-0.05,8.42
				c-0.02,0.7,1.06,0.69,1.08-0.01C118.49,350.08,118.02,339.9,116.52,329.91z"/>
			<path class="st9" d="M136.61,315.78c-6.73,3.08-14.01,4.9-21.4,5.35c-0.69,0.04-0.69,1.13,0.01,1.08
				c7.59-0.47,15.02-2.33,21.93-5.49C137.78,316.43,137.24,315.49,136.61,315.78z"/>
		</g>
		<g>
			<path class="st3" d="M120.97,176.57c0.1,0.46,0.21,0.92,0.31,1.38c-1.94,4.26-4.48,8.66-8.85,10.25
				c-3.22,1.18-6.88,0.54-9.97-0.94c-2.86-1.37-5.39-3.45-7.28-5.99c-1.96-2.63-3.23-5.7-4.27-8.82l0.21-0.07
				c-0.02-0.43-0.09-0.86-0.18-1.28c0.83-4.08,1.66-8.15,2.49-12.23c-3.69-1.38-6.42-4.78-7.82-8.5c-1.52-3.98-1.75-8.31-1.96-12.56
				c-0.21-4.12-0.41-8.23-0.62-12.34c12.01,0.92,24.31-2.89,33.68-10.46c1.88-1.51,3.7-3.25,4.54-5.49
				c4.63,10.16,4.86,21.72,4.6,32.89c-0.05,2.73-0.16,5.54-1.25,8.04c-1.42,3.33-4.38,5.7-7.31,7.87
				C118.38,164.44,119.6,170.52,120.97,176.57z"/>
			<path class="st4" d="M103.09,159.98c-4.96,0.05-10.66-0.73-14.12-4.68c-2.02-2.32-3.03-5.51-3.82-8.43
				c-0.83-3.07-1.31-6.22-1.55-9.39c-0.28-3.57-0.28-7.15-0.18-10.72c0.02-0.7-1.06-0.69-1.08,0.01
				c-0.18,6.66-0.03,13.42,1.64,19.91c0.77,3,1.78,6.2,3.67,8.7c1.59,2.11,3.85,3.54,6.32,4.42c2.91,1.03,6.06,1.3,9.13,1.27
				C103.8,161.05,103.79,159.97,103.09,159.98z"/>
			<path class="st4" d="M126.94,136.65c-0.1-4.17-0.57-8.32-1.24-12.43c-0.75-4.61-1.76-9.17-2.82-13.71
				c-0.16-0.68-1.2-0.4-1.05,0.28c1.8,7.74,3.48,15.56,3.92,23.51c0.21,3.81,0.21,7.71-0.39,11.48c-0.54,3.38-1.72,6.63-4.25,9.03
				c-2.66,2.51-6.18,3.9-9.53,5.21c-0.64,0.25-0.37,1.3,0.28,1.05c1.76-0.69,3.54-1.39,5.23-2.25c1.17,6.23,2.33,12.45,3.5,18.68
				c0.13,0.69,1.18,0.4,1.05-0.28c-1.18-6.29-2.36-12.58-3.54-18.88c0-0.02-0.02-0.03-0.02-0.05c0.93-0.52,1.84-1.09,2.69-1.76
				c2.74-2.14,4.43-5.1,5.24-8.45C126.93,144.37,127.03,140.44,126.94,136.65z"/>
		</g>
		<g>
			<path class="st3" d="M73.88,52.43c-0.51-0.48-1.26-0.39-1.83-0.08c-0.77,0.43-1.47,1.09-2.16,1.64
				c-0.82,0.67-1.62,1.36-2.41,2.07c-0.92,0.83-1.8,1.71-2.65,2.6c-0.43,0.25-0.85,0.5-1.27,0.76c1.16-4.68,2.66-9.27,4.51-13.71
				c0.01-0.2,0.02-0.4,0.03-0.59c0.09-1.76,0.34-3.51,0.58-5.26c0.13-0.9,0.25-1.81,0.36-2.71c0.17-0.96,0.33-1.92,0.48-2.88
				c0.14-0.93,0.26-1.85,0.38-2.78c0.09-0.77,0.17-1.47-0.33-2.12c-0.15-0.2-0.55-0.2-0.71-0.01c-0.66,0.81-1.22,1.69-1.73,2.6
				c-0.1,0.12-0.19,0.25-0.28,0.38c-0.16,0.09-0.32,0.18-0.47,0.27c0.13-1.58,1.33-3.22,0.21-4.7c-0.46-0.62-1.28-0.85-1.96-0.66
				c-0.04-0.72-0.24-1.41-0.64-2.04c-0.17-0.27-0.54-0.34-0.78-0.11c-6.58,6.34-10.36,14.83-13.32,23.33
				c-0.6,1.72-1.16,3.45-1.72,5.18c-0.39-2.98-0.88-5.95-1.48-8.9c-0.08-0.42-0.72-0.49-0.91-0.12c-0.96,1.83-1.28,3.85-1.56,5.88
				c-0.33,2.34-0.65,4.69-0.97,7.04c-0.64,4.66-1.28,9.32-1.92,13.97c-0.32,2.27-0.63,4.54-0.94,6.81c-0.1,0.01-0.19,0.01-0.29,0.03
				c-4.25,16.24-8,32.61-11.19,49.08c-0.53,2.72-1.05,5.5-0.71,8.25c0.28,2.21,1.12,4.33,1.94,6.41
				c5.36,13.44,10.69,26.89,16.04,40.33c0.16-0.21,0.33-0.43,0.5-0.64c6.15-7.52,11.03-16.1,14.36-25.24
				c0.07-0.21,0.16-0.42,0.25-0.64c0-0.01,0-0.01,0-0.01c-4-9.68-8.36-19.21-13.06-28.58l0.38-0.18c1.97-13.29,3.81-26.6,5.52-39.92
				c0.01,0,0.01-0.01,0.02-0.02c0.04-0.2,0.08-0.39,0.11-0.59c0.06-0.04,0.12-0.09,0.16-0.16c3.45-6.41,7.75-12.29,11.84-18.3
				c2.04-2.99,4.05-6.02,5.82-9.18c0.07-0.12,0.14-0.25,0.2-0.38c0.57-0.68,1.82-2.91,1.35-2.91c0.18-0.49,0.34-0.98,0.45-1.49
				C74.23,53.58,74.38,52.9,73.88,52.43z M61,74.03c1.54-2.36,3.16-4.67,4.78-6.98C64.19,69.38,62.59,71.7,61,74.03z"/>
			<path class="st4" d="M46.55,182.13c-3.04-6.29-5.47-12.84-7.85-19.4c-2.33-6.41-4.71-12.78-7.34-19.07
				c-1.49-3.56-2.85-7.32-2.42-11.24c0.08-0.69-1.01-0.68-1.08,0.01c-0.38,3.45,0.59,6.83,1.84,10.01c1.26,3.22,2.67,6.37,3.91,9.6
				c2.52,6.57,4.77,13.23,7.33,19.79c1.43,3.67,2.96,7.3,4.67,10.85C45.91,183.3,46.85,182.75,46.55,182.13z"/>
			<path class="st4" d="M65.68,35.91c0.3-1.05,0.61-2.1,0.91-3.15c0.03,0.05,0.07,0.09,0.11,0.13c0.01-0.05,0.03-0.1,0.04-0.15
				c0.05-0.2,0.07-0.4,0.1-0.61c-0.03,0.02-0.05,0.04-0.08,0.06c0.29-0.97,0.66-1.96,0.76-2.96c0.09-0.88-0.16-1.79-1.01-2.19
				c-0.7-0.34-1.52-0.2-1.94,0.48c-0.03,0.04-0.04,0.09-0.05,0.13c0.19-0.86,0.25-1.73,0.06-2.59c-0.04-0.16-0.19-0.33-0.36-0.35
				c-1.08-0.17-1.77,0.58-2.41,1.35c-0.75,0.9-1.48,1.81-2.19,2.75c-1.44,1.91-2.77,3.91-3.99,5.97c-2.4,4.07-4.36,8.41-5.83,12.9
				c-0.66,2.01-1.21,4.06-1.67,6.13c-0.15-1.51-0.33-3.01-0.56-4.51c-0.18-1.2-0.36-2.42-0.63-3.61c-0.17-0.72-0.54-1.43-1.36-1.45
				c-0.17,0-0.35,0.1-0.43,0.25c-1.73,3.43-2.01,7.28-2.27,11.06c-0.3,4.29-0.73,8.57-1.31,12.83c-0.33,2.43-0.71,4.84-1.12,7.25
				c-0.11,0.63,0.86,0.89,0.97,0.25c0.72-4.14,1.31-8.31,1.77-12.48c0.23-2.07,0.42-4.14,0.58-6.21c0.15-1.96,0.24-3.93,0.5-5.88
				c0.26-2.02,0.72-4.01,1.57-5.86c0.31,0.51,0.42,1.91,0.47,2.19c0.17,0.96,0.32,1.93,0.46,2.89c0.28,1.97,0.48,3.96,0.62,5.95
				c0.05,0.64,1.05,0.64,1-0.01c-0.01-0.1-0.02-0.2-0.03-0.3c0.18-0.01,0.35-0.13,0.39-0.36c1.68-8.75,5.18-17.11,10.26-24.43
				c0.74-1.06,1.5-2.1,2.31-3.12c0.37-0.47,0.75-0.93,1.13-1.39c0.28-0.34,0.72-0.98,1.21-1.14c0.11,0.93-0.14,1.85-0.44,2.74
				c-0.33,0.96-0.7,1.92-1.07,2.87c-0.75,1.94-1.55,3.86-2.34,5.77c-1.54,3.71-3.09,7.41-4.32,11.24c-0.7,2.19-1.29,4.41-1.72,6.67
				c-0.12,0.63,0.85,0.89,0.97,0.25c1.56-8.25,5.32-15.81,8.34-23.58c0.48-1.23,1.11-2.58,1.43-3.94c-0.03,0.44,0.65,0.75,0.94,0.28
				c0.2-0.33,0.72-0.1,0.91,0.13c0.39,0.47,0.14,1.28,0,1.81c-0.34,1.27-0.73,2.53-1.09,3.79c-0.73,2.51-1.46,5.02-2.19,7.53
				c-1.47,5.06-2.96,10.12-4.45,15.17c-0.18,0.62,0.79,0.87,0.97,0.25c1.36-4.62,2.72-9.24,4.07-13.86
				C64.34,40.54,65.01,38.22,65.68,35.91z"/>
			<path class="st4" d="M70.42,29.85c-0.11-0.44-0.35-1.05-0.85-1.18c-0.45-0.12-0.8,0.21-1.04,0.54c-0.88,1.23-1.64,2.56-2.41,3.86
				c-0.33,0.55,0.54,1.06,0.87,0.5c0.59-1,1.19-1.99,1.82-2.96c0.15-0.23,0.31-0.47,0.46-0.7c0.03-0.05,0.05-0.08,0.07-0.12
				c0.05,0.09,0.08,0.23,0.11,0.32c0.15,0.55,0.13,1.16,0.13,1.73c0,2.43-0.45,4.85-0.94,7.22c-0.97,4.66-2.25,9.26-3.55,13.84
				c-0.73,2.59-1.49,5.18-2.28,7.75c-0.19,0.62,0.78,0.87,0.97,0.25c1.58-5.15,3.04-10.34,4.39-15.55c0.68-2.63,1.33-5.27,1.81-7.95
				c0.23-1.28,0.43-2.57,0.53-3.86C70.61,32.35,70.72,31.02,70.42,29.85z"/>
			<path class="st4" d="M74.25,52.35c-0.32-0.65-1.04-0.78-1.66-0.49c-0.88,0.41-1.63,1.28-2.35,1.91
				c-0.85,0.74-1.69,1.49-2.53,2.24c-1.68,1.5-3.34,3.03-4.99,4.56c-0.47,0.44,0.23,1.15,0.7,0.71c2.68-2.5,5.39-4.95,8.15-7.36
				c0.33-0.29,0.65-0.6,1-0.87c0.35-0.28,0.69-0.5,0.83,0.05c0.21,0.81-0.34,2-0.67,2.73c-0.7,1.5-1.54,2.95-2.39,4.37
				c-3.33,5.55-7.37,10.62-11.02,15.96c-2.06,3.02-4,6.12-5.6,9.41c-0.12,0.24-0.03,0.46,0.12,0.6c-1.13,5.22-2.25,10.45-3.14,15.71
				c-0.93,5.46-1.44,10.94-1.93,16.46c-0.28,3.12-0.61,6.24-1.22,9.32c-0.06,0.3,0.13,0.51,0.36,0.59c2.59,4.16,4.34,8.8,6.26,13.28
				c2.06,4.82,4.12,9.63,6.18,14.45c0.25,0.59,1.12,0.09,0.87-0.5c-2.06-4.82-4.12-9.63-6.18-14.45c-1.96-4.58-3.74-9.32-6.42-13.54
				c-0.01-0.01-0.02-0.02-0.03-0.03c0.98-5.2,1.23-10.49,1.76-15.75c0.56-5.61,1.53-11.17,2.64-16.7c0.62-3.09,1.29-6.17,1.95-9.25
				c0.03-0.13,0-0.23-0.04-0.32c3.11-6.14,7.31-11.63,11.29-17.22c2.08-2.92,4.11-5.89,5.88-9.01c0.83-1.47,1.79-3.01,2.18-4.67
				C74.41,53.87,74.56,52.99,74.25,52.35z"/>
		</g>
		<g>
			<path class="st3" d="M189.61,343.34c-0.69,4.9-4.82,9.12-9.71,9.91c-0.83,0.13-1.72,0.13-2.57-0.01c-1.55,0-3.1-0.2-4.61-0.59
				c-1.34-0.35-2.64-0.86-3.86-1.5c-0.77-0.4-2.76-1.26-1.86-2.41c0.38-0.49,1.09-0.78,1.65-1.02c0.6-0.27,1.23-0.48,1.85-0.69
				c1.33-0.45,2.6-0.98,3.71-1.87c0.39-0.31,0.75-0.66,1.09-1.03c0.55-0.86,1.11-1.73,1.53-2.62c-0.2,0.15-0.4,0.27-0.41,0.28
				c-0.62,0.41-1.25,0.82-1.89,1.21c-2.51,1.54-5.4,2.76-8.39,2.05c-0.25-0.06-0.45-0.36-0.36-0.61c0.66-1.87,2.54-3.05,3.86-4.44
				c1.27-1.35,2.4-2.81,3.41-4.37c0.63-1.14,1.26-2.29,1.89-3.44c0.27-0.48,0.54-0.99,0.51-1.54c-0.03-0.73-0.57-1.3-1.08-1.82
				c-11.86-12.05-21.65-26.15-28.8-41.47c-1.4-4.9-2.93-9.77-4.59-14.58c2.67-0.19,5.16-1,6.36-3.26c1.9-3.57-0.99-7.67-1.89-11.62
				c-1.41-6.21,2.32-12.26,4.73-18.15c1.23-3,2.13-6.05,2.75-9.17c2.09,5.77,2.84,11.95,3.83,18.02
				c3.23,19.58,9.27,38.69,17.86,56.58c4.51,9.37,9.71,18.44,13.3,28.19C189.09,336.57,190.1,339.97,189.61,343.34z"/>
			<path class="st4" d="M189.44,338.03c-1-2.65-2.02-5.29-3.04-7.93c-1.13-2.96-2.26-5.91-3.4-8.87c-0.23-0.6-1.2-0.34-0.97,0.26
				c1.85,4.84,3.7,9.68,5.56,14.51c0.44,1.15,0.94,2.3,1.29,3.48c0.36,1.23,0.31,2.38-0.12,3.59c-0.82,2.28-2.12,4.48-3.41,6.53
				c-0.7,1.11-1.45,2.04-2.71,2.52c-0.86,0.32-1.77,0.44-2.68,0.52c0.12-0.12,0.25-0.23,0.36-0.38c0.7-0.96,1.23-2.09,1.8-3.13
				c0.64-1.16,1.27-2.33,1.88-3.51c0.3-0.57-0.57-1.07-0.87-0.5c-1.05,2.03-2.15,4.05-3.3,6.03c-0.22,0.38-0.45,0.78-0.82,1.04
				c-0.42,0.28-0.95,0.4-1.43,0.49c-1.06,0.19-2.15,0.06-3.16-0.29c0.54-0.22,1.03-0.57,1.44-1.03c0.93-1.04,1.74-2.21,2.57-3.32
				c0.89-1.21,1.76-2.43,2.6-3.67c0.36-0.53-0.51-1.03-0.87-0.5c-1.28,1.87-2.6,3.71-3.99,5.5c-0.57,0.74-1.21,1.8-2.13,2.14
				c-1.05,0.39-2.23-0.2-3.19-0.6c-0.52-0.21-1.04-0.43-1.55-0.64c-0.48-0.2-1.14-0.36-1.56-0.66c-0.94-0.66,1.5-1.52,1.94-1.63
				c1.72-0.44,3.29-0.75,4.64-2.01c1.44-1.34,2.33-3.17,3.15-4.93c0.25-0.54-0.47-1-0.79-0.6c-0.19-0.05-0.42-0.01-0.56,0.19
				c-1.06,1.4-2.44,2.53-4.01,3.32c-1.48,0.74-3.43,1.38-5.11,1.18c-0.55-0.06-0.83-0.42-0.54-0.96c0.2-0.36,0.59-0.63,0.9-0.89
				c0.72-0.62,1.4-1.28,2.03-1.98c1.24-1.35,2.33-2.84,3.33-4.37c1.12-1.71,2.12-3.49,3.12-5.27c0.37-0.01,0.69-0.5,0.37-0.86
				c-9.11-10.04-18.06-20.45-24.56-32.43c-1.83-3.37-3.45-6.85-4.81-10.43c-0.23-0.6-1.19-0.34-0.97,0.26
				c4.87,12.87,13,24.12,21.86,34.53c2.39,2.81,4.85,5.56,7.32,8.29c-2.14,3.83-4.34,7.73-7.55,10.78
				c-0.68,0.65-1.66,1.22-2.03,2.11c-0.34,0.8-0.08,1.69,0.73,2.06c0.81,0.36,1.85,0.18,2.69,0.05c0.98-0.15,1.93-0.42,2.85-0.8
				c1.41-0.58,2.67-1.43,3.76-2.47c-0.61,1.09-1.33,2.11-2.31,2.87c-1.7,1.32-4.03,0.99-5.74,2.24c-0.68,0.5-1.35,1.45-0.7,2.25
				c0.29,0.35,0.75,0.49,1.16,0.66l2,0.83c1.06,0.44,2.16,1,3.33,1.04c0.21,0.01,0.41-0.03,0.6-0.06c-0.15,0.25-0.1,0.65,0.27,0.78
				c1.34,0.47,3.18,0.63,4.62,0.08c0.06,0.17,0.21,0.3,0.45,0.28c2.07-0.14,4.36-0.38,5.87-1.98c0.85-0.9,1.46-2.05,2.08-3.11
				c0.66-1.14,1.28-2.31,1.85-3.51c0.51-1.08,1.02-2.2,1.15-3.4C190.26,340.42,189.89,339.22,189.44,338.03z"/>
		</g>
		<g>
			<path class="st4" d="M105.35,144.13c-0.93-0.34-1.86-0.7-2.78-1.07c-0.24-0.1-0.49-0.19-0.73-0.3c-0.22-0.1-0.19-0.07-0.14-0.28
				c0.12-0.51,0.38-1.03,0.56-1.52c0.71-1.94,1.43-3.89,2.14-5.83c0.24-0.65-0.81-0.92-1.05-0.27c-0.84,2.3-1.69,4.6-2.53,6.9
				c-0.16,0.44-0.39,0.92-0.17,1.39c0.2,0.42,0.68,0.57,1.08,0.73c1.11,0.46,2.22,0.9,3.35,1.31
				C105.73,145.42,106,144.37,105.35,144.13z"/>
			<circle class="st4" cx="91.73" cy="143.65" r="5.15"/>
			<circle class="st4" cx="117.55" cy="140.61" r="5.15"/>
			<path class="st5" d="M96.95,125.74c-1.87,0.2-3.72,0.52-5.53,1.01c-0.55,0.15-0.94,0.77-0.77,1.33c0.18,0.56,0.74,0.92,1.33,0.77
				c0.85-0.22,1.7-0.42,2.56-0.58c0.43-0.08,0.86-0.15,1.3-0.21c0.08-0.01,0.17-0.02,0.25-0.04c0.04,0,0.17-0.02,0.18-0.02
				c0.23-0.03,0.47-0.06,0.7-0.08c0.56-0.06,1.11-0.47,1.08-1.09C98.02,126.28,97.56,125.67,96.95,125.74z"/>
			<path class="st5" d="M118.11,123.68c-2.09-0.29-4.18-0.23-6.25,0.21c-0.56,0.12-0.94,0.79-0.77,1.33
				c0.18,0.58,0.73,0.89,1.33,0.77c0.23-0.05,0.46-0.1,0.69-0.14c0.12-0.02,0.25-0.04,0.37-0.06c0.05-0.01,0.06-0.01,0.07-0.01
				c0.01,0,0.03,0,0.08-0.01c0.45-0.05,0.9-0.09,1.35-0.11c0.45-0.02,0.9-0.01,1.35,0.01c0.22,0.01,0.43,0.02,0.65,0.04
				c0.11,0.01,0.22,0.02,0.32,0.03c0.13,0.02,0.14,0.02,0.04,0c0.07,0.01,0.14,0.02,0.21,0.03c0.56,0.08,1.19-0.16,1.32-0.78
				C119,124.48,118.71,123.76,118.11,123.68z"/>
			<path class="st5" d="M94.98,130.25c-2.09,0-2.08,3.25,0.02,3.25C97.09,133.5,97.08,130.25,94.98,130.25z"/>
			<path class="st5" d="M114.98,127.1c-2.09,0-2.08,3.25,0.02,3.25C117.09,130.36,117.08,127.1,114.98,127.1z"/>
			<path class="st12" d="M99.36,147.98l11.86-0.36c0,0-0.73,6.85-6.23,6.65C99.48,154.06,99.36,147.98,99.36,147.98z"/>
		</g>
		<g>
			<path class="st8" d="M153.58,226.64c-0.17,1.32-0.38,2.63-0.65,3.93c-0.62,3.12-1.52,6.18-2.74,9.17
				c-2.42,5.9-6.15,11.95-4.74,18.16c0.9,3.95,3.79,8.04,1.9,11.62c-1.2,2.25-3.7,3.07-6.36,3.25c-1.35,0.09-2.75,0.02-4.04-0.1
				c-12.6-1.16-25.2-2.32-37.8-3.48c-3.98-0.36-8.02-0.73-11.96-0.02c-2.71,0.49-5.61,1.42-8.4,1.96h-0.01
				c-3.48,0.67-6.8,0.72-9.43-1.49c-3.46-2.89-3.46-8.13-3.17-12.63c0.22-3.28,0.43-6.56,0.64-9.83c0.09-1.33,0.17-2.67,0.26-4
				c0.25-3.78,0.48-7.69-0.77-11.26c-0.75-2.12-1.99-4.07-2.57-6.24c-1.04-3.97,0.2-8.56-2.05-12.01c-1.98-3.05-6.16-4.22-7.86-7.43
				c-1.44-2.73-0.73-6.28-2.15-8.98c-0.1-0.2-0.21-0.38-0.34-0.56c-1.99-2.92-6.61-3.62-7.75-6.97c-0.87-2.57,0.83-5.15,2.58-7.34
				c0.16-0.22,0.34-0.43,0.51-0.64c6.15-7.52,11.02-16.11,14.35-25.25c0.08-0.21,0.16-0.42,0.25-0.64c0-0.01,0-0.01,0-0.01
				c0.27-0.64,0.63-1.24,1.24-1.55c1-0.52,2.21-0.01,3.19,0.56c1.05,0.62,2.07,1.32,3.02,2.09c1.82,1.43,3.46,3.12,4.85,4.99
				c0.93,1.25,1.81,2.65,3.21,3.35c2.35,1.2,5.2,0.03,7.84,0.28c2.96,0.28,5.57,2.64,6.31,5.51c-0.07,0.29-0.12,0.57-0.18,0.87v0.01
				c0.05,0.15,0.11,0.31,0.16,0.47c1.04,3.12,2.31,6.19,4.27,8.82c1.9,2.55,4.42,4.63,7.28,5.99c3.09,1.49,6.75,2.12,9.97,0.94
				c4.37-1.59,6.9-5.99,8.85-10.25c0.1-0.23,0.21-0.46,0.3-0.68l0.07-0.62c4.01,0.43,8.03,0.88,12.05,1.31
				c2.55,0.28,5.11,0.55,7.65,0.83c1.31,0.15,2.64,0.29,3.87,0.81c1.91,0.82,3.21,2.34,4.13,4.2c0.48,1.32,0.94,2.64,1.4,3.97
				c3.84,11.13,7.01,22.49,9.51,33.99c0.13,0.61,0.26,1.21,0.18,1.83c-0.17,1.44-1.47,2.54-2.87,2.94
				C156.29,226.9,154.92,226.79,153.58,226.64z"/>
			<path class="st10" d="M153.74,222.61c-0.59-3.07-2.13-5.85-3.58-8.57c-1.63-3.06-3.26-6.11-4.88-9.17
				c-3.7-6.95-7.4-13.89-11.1-20.84c-0.33-0.62-1.27-0.08-0.94,0.54l9.51,17.86c1.59,2.98,3.17,5.95,4.76,8.93
				c1.49,2.8,3.17,5.59,4.31,8.56c0.56,1.45,0.97,2.96,1.07,4.51c0.1,1.63-0.12,3.25-0.45,4.84c-0.66,3.18-1.55,6.33-2.51,9.43
				c-0.95,3.06-2.03,6.08-3.18,9.06c-1.13,2.91-2.18,5.89-1.99,9.05c0.2,3.25,1.5,6.43,1.25,9.71c-0.19,2.45-1.36,5.24-3.92,5.96
				c-0.67,0.19-0.39,1.24,0.28,1.05c2.22-0.62,3.63-2.52,4.29-4.64c0.83-2.66,0.34-5.37-0.19-8.04c-0.31-1.58-0.63-3.17-0.65-4.78
				c-0.02-1.7,0.35-3.36,0.87-4.97c1-3.13,2.33-6.15,3.38-9.27c1.07-3.17,2.01-6.39,2.82-9.64
				C153.65,229.05,154.36,225.85,153.74,222.61z"/>
			<path class="st10" d="M71.75,213.29c0.93-1.87,1.92-3.72,2.73-5.65c0.75-1.79,1.77-4.01,1-5.95c-0.11-0.28-0.35-0.46-0.66-0.38
				c-3.96,1-5.89,4.93-9.04,7.18c-0.09-1.03,0.18-2.07,0.42-3.08c0.3-1.21,0.62-2.41,0.97-3.61c0.71-2.43,1.53-4.84,2.36-7.23
				c1.67-4.78,3.43-9.54,4.71-14.45c0.32-1.24,0.62-2.5,0.87-3.76c0.22-1.13,0.4-2.3,0.21-3.45c-0.13-0.8-0.5-1.98-1.52-1.94
				c-1.01,0.04-1.46,1.29-1.85,2.02c-2.49,4.71-4.89,9.46-7.22,14.26c-2.63,5.42-5.15,10.9-7.57,16.42
				c-0.28,0.63,0.66,1.18,0.94,0.54c4.03-9.2,8.35-18.27,12.96-27.19c0.58-1.12,1.17-2.25,1.76-3.37c0.19-0.37,0.46-1.21,0.82-1.45
				c0.53-0.34,0.64,1.13,0.66,1.45c0.06,1.19-0.23,2.38-0.48,3.53c-0.26,1.17-0.55,2.34-0.86,3.5c-1.26,4.61-2.92,9.1-4.49,13.61
				c-0.89,2.55-1.75,5.11-2.5,7.71c-0.37,1.27-0.71,2.56-1.01,3.85c-0.28,1.22-0.47,2.45-0.11,3.68c0.09,0.33,0.49,0.51,0.79,0.33
				c1.77-1.06,3.13-2.6,4.53-4.08c1.27-1.34,2.64-2.65,4.4-3.26c0.21,1.08-0.16,2.17-0.52,3.2c-0.4,1.12-0.88,2.21-1.39,3.28
				c-1.04,2.17-2.21,4.27-3.16,6.47c-0.45,1.03-0.85,2.08-1.17,3.16c-0.29,0.98-0.68,2.18-0.27,3.18c0.77,1.87,3.13,1.21,4.5,0.52
				c0.62-0.31,0.08-1.25-0.54-0.94c-0.67,0.34-1.7,0.81-2.47,0.51c-1.04-0.42-0.46-2-0.24-2.77
				C69.91,217.1,70.81,215.18,71.75,213.29z"/>
			<path class="st10" d="M80.32,270.18c-2.28,1.32-5.12,1.59-7.57,0.55c-2.28-0.97-4.04-2.92-4.79-5.28
				c-0.84-2.63-0.63-5.47-0.56-8.19c0.08-3.11,0.18-6.21,0.3-9.32c0.13-3.47,0.29-6.93,0.47-10.4c0.04-0.7-1.05-0.69-1.08,0.01
				c-0.34,6.7-0.61,13.41-0.78,20.12c-0.08,2.91-0.24,5.96,0.84,8.72c0.92,2.34,2.75,4.27,5.06,5.28c2.79,1.22,6.03,0.98,8.65-0.54
				C81.46,270.78,80.92,269.83,80.32,270.18z"/>
			<path class="st10" d="M160.66,221.69c-0.67-4.08-1.94-8.08-3.01-12.07c-1.09-4.09-2.19-8.17-3.28-12.26c-0.53-2-1.07-4-1.6-6
				c-0.5-1.86-0.94-3.76-1.56-5.59c-0.56-1.67-1.33-3.33-2.61-4.58c-1.43-1.4-3.35-2.09-5.2-2.72c-0.66-0.23-0.93,0.82-0.27,1.05
				c1.6,0.55,3.29,1.12,4.55,2.29c1.12,1.04,1.83,2.42,2.34,3.84c0.57,1.57,0.95,3.21,1.38,4.82l1.5,5.61
				c1.97,7.38,4.07,14.73,5.9,22.14c0.25,1,0.48,2,0.67,3.01c0.19,0.97,0.44,2.07-0.12,2.96c-1.08,1.73-3.48,1.58-5.24,1.48
				c-0.7-0.04-0.69,1.04,0.01,1.08c1.75,0.11,3.63,0.16,5.12-0.92C160.65,224.82,160.93,223.32,160.66,221.69z"/>
			<path class="st10" d="M88.57,166.07c-0.82-0.59-1.8-1-2.8-1.14c-1.16-0.16-2.3,0.06-3.44,0.27c-1.29,0.24-2.6,0.43-3.85-0.1
				c-1.11-0.47-2.03-1.3-2.87-2.14c-1.59-1.6-3.06-3.31-4.72-4.84c-1.57-1.44-3.33-2.72-5.36-3.4c-0.83-0.28-2.08-0.7-2.92-0.29
				c-0.45,0.22-0.71,0.67-0.98,1.09c-0.34,0.53-0.68,1.07-1,1.62c-2.51,4.18-4.57,8.6-6.79,12.94c-2.48,4.85-5.2,9.63-8.89,13.67
				c-0.47,0.51,0.29,1.29,0.76,0.77c6.23-6.82,9.64-15.5,13.98-23.52c0.53-0.99,1.08-1.97,1.65-2.93c0.29-0.48,0.58-0.96,0.87-1.44
				c0.3-0.47,0.61-1.28,1.25-1.27c2.05,0.06,4.13,1.4,5.66,2.65c1.64,1.34,3.06,2.91,4.51,4.44c1.44,1.53,2.97,3.23,5.05,3.86
				c2.54,0.76,5.05-0.88,7.57-0.19c2.2,0.61,3.93,2.64,4.09,4.92c0.05,0.69,1.13,0.69,1.08-0.01
				C91.26,169.03,90.19,167.25,88.57,166.07z"/>
		</g>
	</g>
</g>
</svg>
